<?xml version="1.0" encoding="utf-8"?>
<!-- Generator: Adobe Illustrator 16.0.0, SVG Export Plug-In . SVG Version: 6.00 Build 0)  -->
<!DOCTYPE svg PUBLIC "-//W3C//DTD SVG 1.1//EN" "http://www.w3.org/Graphics/SVG/1.1/DTD/svg11.dtd">
<svg version="1.1" id="Layer_1" xmlns="http://www.w3.org/2000/svg" xmlns:xlink="http://www.w3.org/1999/xlink" x="0px" y="0px"
	 width="803.738px" height="169.571px" viewBox="0 0 803.738 169.571" enable-background="new 0 0 803.738 169.571"
	 xml:space="preserve">
<g>
	<path fill="#00283D" d="M77.693,105.87v22.025c0,26.512-13.269,41.677-38.845,41.677C13.288,169.571,0,154.406,0,127.895V41.68
		C0,15.159,13.288,0,38.849,0c25.576,0,38.845,15.159,38.845,41.68v16.101H53.058V40.027c0-11.834-5.195-16.341-13.486-16.341
		c-8.292,0-13.521,4.507-13.521,16.341v89.528c0,11.834,5.229,16.101,13.521,16.101c8.291,0,13.486-4.267,13.486-16.101V105.87
		H77.693z M177.928,167.672h-26.3l-4.49-30.061h-31.966l-4.51,30.061H86.738L113.272,1.894h38.129L177.928,167.672z
		 M118.487,115.085h25.088l-12.549-83.822L118.487,115.085z M216.094,75.545h33.631v23.686h-33.631v68.441h-26.032V1.894h68.901
		v23.68h-42.869V75.545z M297.617,91.505h35.745v23.68h-35.745v28.812h45.002v23.675h-71.046V41.383h71.046v23.681h-45.002V91.505z
		 M436.697,40.027v5.919c0,17.047-5.211,27.946-16.818,33.386c13.963,5.454,19.408,18.005,19.408,35.532v13.493
		c0,25.574-13.487,39.316-39.543,39.316h-40.968V1.894h39.312C425.076,1.894,436.697,14.442,436.697,40.027z M384.819,25.574v43.82
		h10.177c9.721,0,15.639-4.269,15.639-17.523v-9.243c0-11.84-4.022-17.053-13.249-17.053H384.819z M384.819,93.074v50.923h14.925
		c8.765,0,13.49-4.028,13.49-16.335v-14.454c0-15.397-4.966-20.134-16.807-20.134H384.819z M539.271,167.672h-26.262l-4.51-30.061
		h-31.972l-4.515,30.061h-23.899L474.626,1.894h38.142L539.271,167.672z M479.861,115.085h25.098l-12.583-83.822L479.861,115.085z
		 M629.337,40.027v5.919c0,17.047-5.197,27.946-16.814,33.386c13.969,5.454,19.414,18.005,19.414,35.532v13.493
		c0,25.574-13.496,39.316-39.545,39.316h-40.969V1.894h39.299C617.73,1.894,629.337,14.442,629.337,40.027z M577.466,25.574v43.82
		h10.174c9.734,0,15.643-4.269,15.643-17.523v-9.243c0-11.84-4.031-17.053-13.262-17.053H577.466z M577.466,93.074v50.923h14.926
		c8.764,0,13.5-4.028,13.5-16.335v-14.454c0-15.397-4.98-20.134-16.836-20.134H577.466z M673.677,71.752h35.766v23.68h-35.766
		v48.565h44.975v23.675h-71.025V1.894h71.025v23.68h-44.975V71.752z M734.832,1.894h26.049v142.104h42.857v23.675h-68.906V1.894z"/>
	<rect x="271.573" y="1.894" fill="#BDE513" width="71.046" height="23.68"/>
</g>
</svg>
