<?xml version="1.0" encoding="utf-8"?>
<!-- Generator: Adobe Illustrator 16.0.0, SVG Export Plug-In . SVG Version: 6.00 Build 0)  -->
<!DOCTYPE svg PUBLIC "-//W3C//DTD SVG 1.1//EN" "http://www.w3.org/Graphics/SVG/1.1/DTD/svg11.dtd">
<svg version="1.1" id="Layer_1" xmlns="http://www.w3.org/2000/svg" xmlns:xlink="http://www.w3.org/1999/xlink" x="0px" y="0px"
	 width="32px" height="32px" viewBox="0 0 32 32" enable-background="new 0 0 32 32" xml:space="preserve">
<title>arrow-down</title>
<path d="M27.414,19.414l-10,10c-0.781,0.781-2.047,0.781-2.828,0l-10-10c-0.781-0.781-0.781-2.047,0-2.828
	c0.781-0.781,2.047-0.781,2.828,0L14,23.172V4c0-1.105,0.895-2,2-2c1.105,0,2,0.895,2,2v19.172l6.586-6.586
	C24.977,16.196,25.488,16,26,16s1.023,0.195,1.414,0.586C28.195,17.367,28.195,18.633,27.414,19.414z"/>
</svg>
