<?xml version="1.0" encoding="utf-8"?>
<!-- Generator: Adobe Illustrator 16.0.0, SVG Export Plug-In . SVG Version: 6.00 Build 0)  -->
<!DOCTYPE svg PUBLIC "-//W3C//DTD SVG 1.1//EN" "http://www.w3.org/Graphics/SVG/1.1/DTD/svg11.dtd">
<svg version="1.1" id="Layer_1" xmlns="http://www.w3.org/2000/svg" xmlns:xlink="http://www.w3.org/1999/xlink" x="0px" y="0px"
	 width="32px" height="32px" viewBox="0 0 32 32" enable-background="new 0 0 32 32" xml:space="preserve">
<title>cross</title>
<path fill="#696969" d="M31.708,25.708L31.708,25.708L22,16l9.708-9.708l0,0c0.104-0.105,0.181-0.227,0.229-0.357
	c0.133-0.356,0.057-0.771-0.229-1.057l-4.586-4.586c-0.286-0.286-0.702-0.361-1.058-0.229c-0.129,0.048-0.252,0.124-0.356,0.228l0,0
	L16,9.999L6.292,0.291l0,0c-0.105-0.104-0.227-0.18-0.357-0.228C5.579-0.07,5.164,0.006,4.878,0.292L0.292,4.878
	C0.006,5.164-0.069,5.58,0.063,5.935c0.049,0.13,0.124,0.252,0.229,0.357l0,0L10,16l-9.708,9.708l0,0
	c-0.104,0.104-0.18,0.228-0.229,0.356c-0.133,0.354-0.057,0.771,0.229,1.058l4.586,4.586c0.286,0.286,0.702,0.36,1.057,0.229
	c0.13-0.049,0.252-0.125,0.357-0.229l0,0L16,22l9.708,9.708l0,0c0.104,0.104,0.228,0.181,0.356,0.229
	c0.354,0.133,0.771,0.057,1.058-0.229l4.586-4.586c0.286-0.286,0.362-0.702,0.229-1.058C31.889,25.936,31.812,25.812,31.708,25.708z
	"/>
</svg>
