<?xml version="1.0" encoding="utf-8"?>
<!-- Generator: Adobe Illustrator 16.0.0, SVG Export Plug-In . SVG Version: 6.00 Build 0)  -->
<!DOCTYPE svg PUBLIC "-//W3C//DTD SVG 1.1//EN" "http://www.w3.org/Graphics/SVG/1.1/DTD/svg11.dtd">
<svg version="1.1" id="Layer_1" xmlns="http://www.w3.org/2000/svg" xmlns:xlink="http://www.w3.org/1999/xlink" x="0px" y="0px"
	 width="32px" height="32px" viewBox="0 0 32 32" enable-background="new 0 0 32 32" xml:space="preserve">
<title>file</title>
<path fill="#00283C" d="M26,28H6v-4l6-10l8.219,10L26,20V28z"/>
<path fill="#00283C" d="M26,15c0,1.657-1.343,3-3,3s-3-1.343-3-3s1.343-3,3-3S26,13.343,26,15z"/>
<path fill="#00283C" d="M28.682,7.159c-0.695-0.947-1.662-2.053-2.725-3.116s-2.169-2.03-3.116-2.724C21.229,0.137,20.448,0,20,0
	H4.5C3.122,0,2,1.121,2,2.5v27C2,30.878,3.122,32,4.5,32h23c1.378,0,2.5-1.122,2.5-2.5V10C30,9.552,29.863,8.77,28.682,7.159z
	 M24.543,5.457C25.502,6.416,26.255,7.282,26.811,8H22V3.189C22.718,3.745,23.584,4.498,24.543,5.457z M28,29.5
	c0,0.271-0.229,0.5-0.5,0.5h-23C4.229,30,4,29.771,4,29.5v-27C4,2.229,4.229,2,4.5,2c0,0,15.499,0,15.5,0v7c0,0.552,0.448,1,1,1h7
	V29.5z"/>
</svg>
