<?xml version="1.0" encoding="utf-8"?>
<!-- Generator: Adobe Illustrator 16.0.0, SVG Export Plug-In . SVG Version: 6.00 Build 0)  -->
<!DOCTYPE svg PUBLIC "-//W3C//DTD SVG 1.1//EN" "http://www.w3.org/Graphics/SVG/1.1/DTD/svg11.dtd">
<svg version="1.1" id="Layer_1" xmlns="http://www.w3.org/2000/svg" xmlns:xlink="http://www.w3.org/1999/xlink" x="0px" y="0px"
	 width="200px" height="200px" viewBox="0 0 200 200" enable-background="new 0 0 200 200" xml:space="preserve">
<g>
	
		<path fill-rule="evenodd" clip-rule="evenodd" fill="none" stroke="#00283C" stroke-width="8.3" stroke-linejoin="round" stroke-miterlimit="10" d="
		M159.046,132.072c-0.616,8.26-3.052,15.719-9.865,21.11c-4.17,3.299-9.038,4.805-14.198,5.536
		c-5.483,0.777-11.021,0.822-16.537,0.875c-12.28,0.118-24.564,0.157-36.844-0.012c-6.623-0.09-13.296,0.043-19.823-1.466
		c-11.874-2.743-19.138-11.004-20.491-23.178c-0.971-8.734-0.894-17.506-0.929-26.269c-0.05-12.225-0.153-24.452,0.354-36.671
		c0.172-4.142,0.498-8.271,1.69-12.274c3.09-10.379,10.227-16.154,20.685-18.119c6.089-1.144,12.272-1.114,18.422-1.187
		c12.333-0.145,24.67-0.161,37.002,0.005c6.569,0.089,13.186-0.021,19.665,1.446c11.863,2.686,19.18,10.979,20.58,23.13
		c0.634,5.501,0.729,11.023,0.858,16.541c0.137,5.792,0.03,11.59,0.03,17.385C159.644,109.978,159.868,121.038,159.046,132.072z"/>
	
		<path fill-rule="evenodd" clip-rule="evenodd" fill="none" stroke="#00283C" stroke-width="8.3" stroke-linejoin="round" stroke-miterlimit="10" d="
		M99.921,127.908c-15.333-0.089-27.889-12.736-27.808-28.009c0.081-15.334,12.684-27.846,28.007-27.808
		c15.285,0.039,27.888,12.732,27.808,28.006C127.849,115.425,115.188,127.997,99.921,127.908z"/>
	<path fill-rule="evenodd" clip-rule="evenodd" fill="#00283C" d="M135.61,72.117c-4.25-0.024-7.729-3.53-7.707-7.763
		c0.021-4.25,3.515-7.718,7.763-7.707c4.235,0.01,7.729,3.529,7.707,7.762C143.352,68.657,139.842,72.141,135.61,72.117z"/>
</g>
</svg>
