<?xml version="1.0" encoding="utf-8"?>
<!-- Generator: Adobe Illustrator 16.0.0, SVG Export Plug-In . SVG Version: 6.00 Build 0)  -->
<!DOCTYPE svg PUBLIC "-//W3C//DTD SVG 1.1//EN" "http://www.w3.org/Graphics/SVG/1.1/DTD/svg11.dtd">
<svg version="1.1" id="Layer_1" xmlns="http://www.w3.org/2000/svg" xmlns:xlink="http://www.w3.org/1999/xlink" x="0px" y="0px"
	 width="200px" height="200px" viewBox="0 0 200 200" enable-background="new 0 0 200 200" xml:space="preserve">
<path fill="none" stroke="#00283C" stroke-width="7.8" stroke-linejoin="round" stroke-miterlimit="10" d="M62.258,42.569
	c-3.89,0-7.172,1.401-9.844,4.193c-2.678,2.797-4.011,6.143-4.011,10.027c0,3.892,1.333,7.174,4.011,9.845
	c2.672,2.677,5.955,4.012,9.844,4.012c3.887,0,7.169-1.335,9.847-4.012c2.673-2.671,4.01-5.953,4.01-9.845
	c0-3.885-1.337-7.23-4.01-10.027C69.427,43.971,66.145,42.569,62.258,42.569z M73.564,79.033H50.956v78.397h22.608V79.033z
	 M84.502,157.431h22.609v-50.321c1.696-1.697,3.646-3.035,5.834-4.009c1.698-0.73,3.646-1.216,5.834-1.459
	c2.188-0.241,4.376,0.243,6.563,1.459c0.97,0.487,1.879,1.401,2.734,2.734c0.849,1.337,1.276,2.615,1.276,3.827v47.769h22.243
	v-47.769c0-5.104-1.4-10.085-4.192-14.95c-2.801-4.859-6.509-8.626-11.121-11.303c-4.139-2.189-8.934-3.401-14.404-3.647
	c-5.47-0.238-10.393,0.729-14.768,2.917v-3.646H84.502V157.431z"/>
</svg>
