<?xml version="1.0" encoding="utf-8"?>
<!-- Generator: Adobe Illustrator 16.0.0, SVG Export Plug-In . SVG Version: 6.00 Build 0)  -->
<!DOCTYPE svg PUBLIC "-//W3C//DTD SVG 1.1//EN" "http://www.w3.org/Graphics/SVG/1.1/DTD/svg11.dtd">
<svg version="1.1" id="Layer_1" xmlns="http://www.w3.org/2000/svg" xmlns:xlink="http://www.w3.org/1999/xlink" x="0px" y="0px"
	 width="200px" height="200px" viewBox="0 0 200 200" enable-background="new 0 0 200 200" xml:space="preserve">
<g>
	
		<rect x="42" y="44" fill="none" stroke="#00283C" stroke-width="8" stroke-linejoin="round" stroke-miterlimit="10" width="114" height="114"/>
	<g>
		<path fill="#00283C" d="M139.79,69l-7.261,5.931l-0.295,45.122l6.766,7.041V130h-32v-2.906l8-7.113V89.95L98.893,130h-2.172
			L75,83.826v31.314l8,11.954V130H61v-3.104l9-11.756V78.096L62.738,69h23.313l17.388,37.191L118.452,69H140 M139.79,62h-21.338
			c-2.658,0-5.051,1.71-6.046,4.175l-9.405,23.348L91.958,65.831C90.886,63.538,88.583,62,86.052,62H62.738
			c-2.499,0-4.777,1.524-5.867,3.772s-0.612,4.97,0.937,6.931L64,80.359v32.479l-8.296,9.964c-0.935,1.159-1.704,2.604-1.704,4.094
			v3.457c0,3.601,3.063,6.647,6.664,6.647h22.523c3.475,0,6.314-2.781,6.509-6.207l1.123,2.425c1.074,2.289,3.374,3.782,5.902,3.782
			h2.172c1.482,0,2.881-0.502,4.001-1.372c1.104,0.86,2.494,1.372,4.002,1.372h32.006c3.601,0,6.099-3.047,6.099-6.647v-3.259
			c0-1.664-0.426-3.266-1.568-4.477l-4.812-5.207l0.354-39.559l4.975-4.14c2.104-1.76,2.895-4.744,1.958-7.322
			C144.97,63.812,142.532,62,139.79,62L139.79,62z"/>
	</g>
</g>
</svg>
