<?xml version="1.0" encoding="utf-8"?>
<!-- Generator: Adobe Illustrator 16.0.0, SVG Export Plug-In . SVG Version: 6.00 Build 0)  -->
<!DOCTYPE svg PUBLIC "-//W3C//DTD SVG 1.1//EN" "http://www.w3.org/Graphics/SVG/1.1/DTD/svg11.dtd">
<svg version="1.1" id="Layer_1" xmlns="http://www.w3.org/2000/svg" xmlns:xlink="http://www.w3.org/1999/xlink" x="0px" y="0px"
	 width="661.89px" height="437.978px" viewBox="0 0 661.89 437.978" enable-background="new 0 0 661.89 437.978"
	 xml:space="preserve">
<path fill="#00283C" d="M648.5,233.553c-60.211,0-94.089-33.684-129.957-69.345c-10.523-10.463-21.345-21.223-33.026-31.321
	l3.469-2.792c2.375-1.911,3.356-5.069,2.483-7.99l-12.617-42.231c-0.278-0.931-0.734-1.799-1.344-2.556l-29.702-36.9
	c-0.576-0.715-1.278-1.319-2.071-1.78L405.526,15.25c-2.685-1.562-6.056-1.307-8.475,0.642l-46.063,37.096
	c-26.226-1.215-79.745,12.447-122.409,26.975c-28.082,9.562-96.054,34.743-120.659,61.991
	c-19.567,21.671-46.323,63.004-65.065,100.515c-24.616,49.265-32.18,82.907-22.48,99.99c2.195,3.866,4.622,6.712,7.115,8.812
	l-22.213,65.52c-0.868,2.558-0.367,5.383,1.327,7.486c1.508,1.874,3.776,2.945,6.15,2.945c0.292,0,0.586-0.016,0.88-0.049
	l118.278-13.253c2.798,0.498,5.746,0.935,8.853,1.303c11.208,1.327,21.574,1.892,31.188,1.892c33.401,0,57.717-6.813,76.61-12.107
	c16.297-4.567,28.072-7.869,37.816-4.745c38.774,12.423,248.234-1.884,260.469-2.733H648.5c4.143,0,7.5-3.357,7.5-7.5V241.053
	C656,236.911,652.643,233.553,648.5,233.553z M402.443,30.809l34.55,20.096l27.908,34.672l10.753,35.993l-24.325,19.579
	l-9.644-30.595c-0.295-0.938-0.763-1.812-1.379-2.577l-29.707-36.91c-0.603-0.749-1.336-1.381-2.166-1.866l-31.09-18.178
	L402.443,30.809z M146.06,226.585l5.225,6.488L364.182,61.622l26.348,15.406L93.76,314.058l-0.027-0.031
	c9.592-14.246,16.286-27.312,17.826-30.392c14.665-29.326,31.916-45.304,38.952-49.633L146.06,226.585z M105.227,327.435
	l-1.182-1.379L403.228,87.098l19.833,24.642L189.074,300.804l0.523,0.647c-3.68,1.027-7.333,2.052-10.972,3.073
	c-18.954,5.32-36.857,10.345-56.228,15C116.298,320.991,110.479,323.759,105.227,327.435z M430.105,126.352l8.015,25.428
	L279.404,279.528c-19.77,3.895-37.499,8.049-54.087,12.296L430.105,126.352z M56.982,249.528
	c18.176-36.376,43.943-76.26,62.66-96.99c15.349-16.998,57.976-38.54,114.027-57.625c36.298-12.359,71.746-21.361,95.987-24.747
	L142.596,220.812l-0.211-0.352c-0.985,0.591-24.371,14.956-44.951,56.112c-17.852,35.701-42.096,63.938-55.194,64.283
	c-1.241,0.034-4.544,0.122-8.131-6.195C26.397,321.079,40.868,281.778,56.982,249.528z M36.354,408.735
	c-1.318-4.346-4.291-7.979-8.045-10.698l14.032-41.389c0.104-0.002,0.21-0.002,0.313-0.005
	c14.534-0.383,29.355-14.031,41.537-29.479l9.406,10.974c-8.251,9.882-13.232,22.2-12.539,33.927
	c0.487,8.246,3.937,20.213,17.799,29.667L36.354,408.735z M641,382.529h-94.413c-0.174,0-0.348,0.006-0.521,0.019
	c-60.723,4.232-224.928,13.101-255.11,3.43c-14.031-4.494-28.333-0.486-46.44,4.587c-23.124,6.479-54.793,15.355-101.987,9.763
	c-3.005-0.355-5.868-0.79-8.602-1.291l-0.137-1.218l-3.812,0.427c-21.248-4.676-33.177-14.081-33.944-27.064
	c-0.895-15.149,13.622-33.165,29.87-37.071c19.645-4.721,37.681-9.782,56.776-15.142c30.409-8.535,61.854-17.361,101.42-25.073
	c1.196-0.233,2.318-0.755,3.268-1.519l186.263-149.92c12.084,10.265,23.377,21.493,34.338,32.39
	c35.052,34.85,71.25,70.842,133.033,73.545V382.529z"/>
</svg>
