<?xml version="1.0" encoding="utf-8"?>
<!-- Generator: Adobe Illustrator 16.0.0, SVG Export Plug-In . SVG Version: 6.00 Build 0)  -->
<!DOCTYPE svg PUBLIC "-//W3C//DTD SVG 1.1//EN" "http://www.w3.org/Graphics/SVG/1.1/DTD/svg11.dtd">
<svg version="1.1" id="Layer_1" xmlns="http://www.w3.org/2000/svg" xmlns:xlink="http://www.w3.org/1999/xlink" x="0px" y="0px"
	 width="59.979px" height="38.043px" viewBox="0 0 59.979 38.043" enable-background="new 0 0 59.979 38.043" xml:space="preserve">
<path fill="#00283C" d="M59.289,20.203c-5.547,0-8.668-3.102-11.97-6.388c-0.969-0.965-1.967-1.955-3.043-2.886l0.32-0.257
	c0.219-0.176,0.309-0.467,0.229-0.735l-1.162-3.891c-0.026-0.085-0.066-0.166-0.125-0.235l-2.734-3.399
	c-0.053-0.065-0.118-0.121-0.191-0.163l-3.703-2.154c-0.247-0.145-0.559-0.121-0.781,0.06L31.885,3.57
	c-2.417-0.112-7.347,1.147-11.277,2.485c-2.586,0.881-8.848,3.201-11.114,5.71c-1.803,1.997-4.268,5.803-5.993,9.259
	c-2.269,4.538-2.966,7.637-2.072,9.211c0.202,0.355,0.426,0.617,0.656,0.812l-2.046,6.035c-0.08,0.234-0.035,0.496,0.122,0.689
	c0.138,0.172,0.348,0.27,0.566,0.27c0.027,0,0.053,0,0.08-0.004l10.896-1.221c0.258,0.045,0.529,0.086,0.816,0.119
	c1.032,0.121,1.987,0.176,2.873,0.176c3.077,0,5.316-0.629,7.057-1.115c1.501-0.422,2.586-0.725,3.483-0.438
	c3.572,1.145,22.866-0.174,23.992-0.252h9.365c0.381,0,0.689-0.309,0.689-0.691V20.893C59.98,20.513,59.67,20.203,59.289,20.203z
	 M36.623,1.528l3.183,1.852l2.571,3.194l0.989,3.315l-2.24,1.804l-0.888-2.819c-0.027-0.086-0.071-0.167-0.128-0.236l-2.736-3.401
	c-0.056-0.068-0.124-0.127-0.199-0.171L34.311,3.39L36.623,1.528z M13.007,19.561l0.481,0.598L33.1,4.366l2.426,1.419L8.189,27.62
	l-0.002-0.003c0.883-1.313,1.5-2.517,1.642-2.801c1.351-2.701,2.94-4.173,3.588-4.571L13.007,19.561z M9.245,28.85l-0.109-0.127
	l27.56-22.012l1.826,2.27L16.969,26.399l0.049,0.059c-0.339,0.095-0.676,0.189-1.011,0.283c-1.747,0.49-3.396,0.953-5.18,1.381
	C10.265,28.257,9.728,28.51,9.245,28.85z M39.172,10.328l0.737,2.342L25.29,24.438c-1.821,0.358-3.454,0.741-4.982,1.133
	L39.172,10.328z M4.801,21.674c1.674-3.351,4.048-7.025,5.772-8.935c1.414-1.566,5.34-3.55,10.504-5.308
	c3.343-1.139,6.609-1.968,8.842-2.28L12.687,19.029l-0.019-0.032c-0.092,0.054-2.246,1.377-4.141,5.17
	c-1.646,3.287-3.878,5.889-5.085,5.922c-0.114,0.002-0.418,0.01-0.749-0.572C1.984,28.266,3.317,24.643,4.801,21.674z M2.901,36.341
	c-0.121-0.4-0.396-0.736-0.741-0.986l1.292-3.812c0.009,0,0.019,0,0.028,0c1.339-0.037,2.704-1.293,3.826-2.715l0.866,1.01
	c-0.759,0.91-1.218,2.045-1.155,3.125c0.045,0.76,0.363,1.861,1.639,2.732L2.901,36.341z M58.597,33.927H49.9
	c-0.016,0-0.031,0-0.047,0c-5.593,0.389-20.719,1.207-23.5,0.316c-1.292-0.414-2.61-0.045-4.277,0.422
	c-2.13,0.596-5.047,1.414-9.395,0.9c-0.277-0.033-0.541-0.072-0.792-0.119l-0.013-0.111l-0.351,0.039
	c-1.958-0.432-3.057-1.297-3.127-2.494c-0.083-1.395,1.254-3.055,2.751-3.414c1.811-0.434,3.471-0.902,5.23-1.395
	c2.801-0.786,5.698-1.6,9.342-2.311c0.111-0.021,0.214-0.069,0.302-0.14l17.158-13.81c1.112,0.945,2.152,1.979,3.162,2.983
	c3.228,3.21,6.562,6.526,12.253,6.775V33.927L58.597,33.927z"/>
</svg>
