<?xml version="1.0" encoding="utf-8"?>
<!-- Generator: Adobe Illustrator 22.0.0, SVG Export Plug-In . SVG Version: 6.00 Build 0)  -->
<svg version="1.1" id="Calque_1" xmlns="http://www.w3.org/2000/svg" xmlns:xlink="http://www.w3.org/1999/xlink" x="0px" y="0px"
	 viewBox="0 0 300 300" style="enable-background:new 0 0 300 300;" xml:space="preserve">
<style type="text/css">
	.st0{fill:#00283C;}
</style>
<g>
	<path class="st0" d="M149.1,205.3c27.7,0,50.1-22.4,50.1-50.1V55.1c0-27.7-22.4-50.1-50.1-50.1S99,27.4,99,55.1v100.2
		C99,182.9,121.4,205.3,149.1,205.3z M124.1,55.1c0-13.8,11.2-25,25-25s25,11.2,25,25v100.2c0,13.8-11.2,25-25,25s-25-11.2-25-25
		C124.1,155.3,124.1,55.1,124.1,55.1z"/>
	<path class="st0" d="M236.8,155.3c0-6.9-5.6-12.5-12.5-12.5s-12.5,5.6-12.5,12.5c0,34.6-28,62.6-62.6,62.6s-62.6-28-62.6-62.6
		c0-6.9-5.6-12.5-12.5-12.5s-12.5,5.6-12.5,12.5c0.1,43.5,32,80.4,75.1,86.7v26h-6.3c-6.9,0-12.5,5.6-12.5,12.5s5.5,12.5,12.4,12.5
		h37.6c6.9,0,12.5-5.6,12.5-12.5s-5.6-12.5-12.5-12.5h-6.3v-26C204.7,235.7,236.7,198.8,236.8,155.3z"/>
</g>
</svg>
