<?xml version="1.0" encoding="utf-8"?>
<!-- Generator: Adobe Illustrator 16.0.0, SVG Export Plug-In . SVG Version: 6.00 Build 0)  -->
<!DOCTYPE svg PUBLIC "-//W3C//DTD SVG 1.1//EN" "http://www.w3.org/Graphics/SVG/1.1/DTD/svg11.dtd">
<svg version="1.1" id="Layer_1" xmlns="http://www.w3.org/2000/svg" xmlns:xlink="http://www.w3.org/1999/xlink" x="0px" y="0px"
	 width="168.444px" height="168.186px" viewBox="0 0 168.444 168.186" enable-background="new 0 0 168.444 168.186"
	 xml:space="preserve">
<circle fill="#EDEDED" cx="84.259" cy="84" r="84.185"/>
<path fill="#00283C" d="M139.193,125.083c-8.206-9.567-17.357-16.927-31.783-20.566c10.953-7.438,18.164-19.993,18.164-34.202
	C125.574,47.534,107.041,29,84.26,29S42.944,47.534,42.944,70.315c0,14.23,7.231,26.802,18.212,34.236
	c-14.345,3.651-23.461,10.995-31.641,20.532c-2.337,2.726-2.023,6.829,0.702,9.165c2.724,2.338,6.829,2.023,9.165-0.701
	C49.458,121.801,60.031,115,84.26,115h0.189c24.229,0,34.802,6.801,44.877,18.547c1.285,1.498,3.105,2.268,4.937,2.268
	c1.498,0,3.003-0.514,4.229-1.566C141.217,131.912,141.53,127.809,139.193,125.083z M84.26,42c15.612,0,28.314,12.702,28.314,28.315
	S99.872,98.63,84.26,98.63c-15.613,0-28.315-12.702-28.315-28.315S68.646,42,84.26,42z"/>
</svg>
