<?xml version="1.0" encoding="utf-8"?>
<!-- Generator: Adobe Illustrator 16.0.0, SVG Export Plug-In . SVG Version: 6.00 Build 0)  -->
<!DOCTYPE svg PUBLIC "-//W3C//DTD SVG 1.1//EN" "http://www.w3.org/Graphics/SVG/1.1/DTD/svg11.dtd">
<svg version="1.1" id="Layer_1" xmlns="http://www.w3.org/2000/svg" xmlns:xlink="http://www.w3.org/1999/xlink" x="0px" y="0px"
	 width="661.89px" height="437.978px" viewBox="0 0 661.89 437.978" enable-background="new 0 0 661.89 437.978"
	 xml:space="preserve">
<g>
	<path fill="#00283C" d="M562.919,326.67c32.383-34.775,50.149-76.522,50.149-118.123c0-50.556-23.759-98.007-66.9-133.612
		c-42.747-35.28-99.485-54.709-159.763-54.709c-60.271,0-116.991,19.43-159.713,54.71c-19.986,16.505-35.801,35.56-47.026,56.288
		c-36.358,7.331-69.326,24.593-93.145,48.838c-25.192,25.643-39.066,58.081-39.066,91.338c0,31.984,13.308,63.6,37.598,89.604
		l-30.612,46.11c-1.647,2.481-1.544,5.733,0.257,8.105c1.348,1.775,3.427,2.768,5.576,2.767c0.721,0,1.451-0.111,2.162-0.343
		l69.158-22.472c15.556,7.767,32.372,13.409,50.037,16.784c12.685,2.426,25.776,3.655,38.913,3.655
		c36.354,0,71-9.219,100.412-26.684c20.961,5.226,42.959,7.935,65.454,7.935c17.242,0,34.404-1.609,51.01-4.783
		c23.478-4.486,45.799-12.02,66.407-22.408l92.395,29.99c0.711,0.23,1.439,0.342,2.16,0.342c2.146,0,4.224-0.989,5.573-2.763
		c1.801-2.368,1.908-5.616,0.268-8.098L562.919,326.67z M220.545,401.612c-12.256,0-24.464-1.146-36.285-3.406
		c-17.181-3.283-33.477-8.864-48.448-16.594c-0.18-0.107-0.366-0.208-0.558-0.301l-0.414-0.2c-2.376-1.148-5.084-0.836-7.101,0.594
		l-50.522,16.416l22.614-34.062c1.845-2.779,1.473-6.474-0.889-8.829c-24.174-24.106-37.488-53.877-37.488-83.829
		c0-29.994,12.121-58.186,35.053-81.527c19.588-19.938,46.025-34.752,75.491-42.5c-7.989,19.422-12.159,40.024-12.159,61.175
		c0,50.558,23.742,98.007,66.853,133.606c21.842,18.037,47.349,31.919,75.113,41.191
		C277.305,395.321,249.539,401.612,220.545,401.612z M508.005,356.309c-2.096-1.615-5.021-1.967-7.519-0.659
		c-20.261,10.591-42.363,18.221-65.694,22.678c-15.743,3.01-32.021,4.535-48.382,4.535c-117.212,0-212.57-78.197-212.57-174.315
		c0-96.121,95.356-174.321,212.565-174.321c117.263,0,212.663,78.2,212.663,174.321c0,39.563-17.781,79.49-50.067,112.425
		c-2.311,2.357-2.661,6.008-0.841,8.761l33.343,50.433L508.005,356.309z"/>
	<path fill="#00283C" d="M315.975,195.726c-12.1,0-21.905,9.812-21.905,21.91c0,12.097,9.806,21.9,21.905,21.9
		c12.101,0,21.905-9.804,21.905-21.9C337.88,205.538,328.075,195.726,315.975,195.726z"/>
	<path fill="#00283C" d="M391.498,195.726c-12.099,0-21.902,9.812-21.902,21.91c0,12.097,9.804,21.9,21.902,21.9
		c12.102,0,21.908-9.804,21.908-21.9C413.406,205.538,403.6,195.726,391.498,195.726z"/>
	<path fill="#00283C" d="M467.024,195.726c-12.099,0-21.905,9.812-21.905,21.91c0,12.097,9.807,21.9,21.905,21.9
		c12.1,0,21.905-9.804,21.905-21.9C488.93,205.538,479.124,195.726,467.024,195.726z"/>
</g>
</svg>
