<?xml version="1.0" encoding="utf-8"?>
<!-- Generator: Adobe Illustrator 16.0.0, SVG Export Plug-In . SVG Version: 6.00 Build 0)  -->
<!DOCTYPE svg PUBLIC "-//W3C//DTD SVG 1.1//EN" "http://www.w3.org/Graphics/SVG/1.1/DTD/svg11.dtd">
<svg version="1.1" id="Layer_1" xmlns="http://www.w3.org/2000/svg" xmlns:xlink="http://www.w3.org/1999/xlink" x="0px" y="0px"
	 width="200px" height="200px" viewBox="0 0 200 200" enable-background="new 0 0 200 200" xml:space="preserve">
<path fill="none" stroke="#00283C" stroke-width="8.392" stroke-linejoin="round" stroke-miterlimit="10" d="M172.779,54.87
	c-3.969,5.788-8.928,10.996-14.878,15.623v3.471c0,9.919-1.86,19.961-5.58,30.129c-3.72,10.166-9.174,19.342-16.367,27.524
	c-7.189,8.184-16.035,14.839-26.531,19.963c-10.5,5.126-22.608,7.685-36.327,7.685c-8.432,0-16.49-1.197-24.178-3.596
	c-7.688-2.396-14.921-5.74-21.697-10.043c1.154,0.167,2.312,0.25,3.472,0.25c1.154,0,2.395,0,3.72,0
	c14.216,0,26.532-4.215,36.946-12.647c-6.612-0.164-12.44-2.188-17.48-6.075c-5.045-3.882-8.474-8.803-10.291-14.754
	c1.983,0.496,3.801,0.743,5.456,0.743c1.486,0,2.852-0.08,4.091-0.247c1.24-0.162,2.518-0.411,3.844-0.744
	c-6.942-1.487-12.689-4.916-17.234-10.291c-4.549-5.37-6.818-11.693-6.818-18.971v-0.247c1.983,0.993,4.091,1.821,6.323,2.479
	c2.23,0.663,4.75,0.992,7.562,0.992C42.51,83.473,39.205,80,36.893,75.699c-2.318-4.297-3.473-9.09-3.473-14.381
	c0-5.29,1.321-10.33,3.968-15.127c7.439,9.26,16.446,16.657,27.028,22.193c10.578,5.54,22.069,8.555,34.468,9.051
	c-0.495-1.983-0.743-4.13-0.743-6.448c0-4.13,0.782-8.058,2.355-11.777c1.569-3.72,3.72-6.942,6.447-9.672
	c2.727-2.728,5.865-4.874,9.423-6.446c3.553-1.568,7.396-2.356,11.53-2.356c4.463,0,8.511,0.868,12.15,2.604
	c3.635,1.736,6.858,4.01,9.671,6.819c3.305-0.497,6.608-1.403,9.92-2.729c3.304-1.321,6.361-2.728,9.173-4.215
	c-2.646,6.943-7.027,12.397-13.143,16.365c3.139-0.329,6.115-0.906,8.929-1.735C167.406,57.021,170.133,56.028,172.779,54.87z"/>
</svg>
