<?xml version="1.0" encoding="utf-8"?>
<!-- Generator: Adobe Illustrator 16.0.0, SVG Export Plug-In . SVG Version: 6.00 Build 0)  -->
<!DOCTYPE svg PUBLIC "-//W3C//DTD SVG 1.1//EN" "http://www.w3.org/Graphics/SVG/1.1/DTD/svg11.dtd">
<svg version="1.1" id="Layer_1" xmlns="http://www.w3.org/2000/svg" xmlns:xlink="http://www.w3.org/1999/xlink" x="0px" y="0px"
	 width="200px" height="200px" viewBox="0 0 200 200" enable-background="new 0 0 200 200" xml:space="preserve">
<path fill-rule="evenodd" clip-rule="evenodd" fill="none" stroke="#00283C" stroke-width="8.3" stroke-linejoin="round" stroke-miterlimit="10" d="
	M184.221,88.167c-0.093-5.865-0.594-11.711-1.114-17.555c-0.4-4.498-1.22-8.882-2.664-13.165
	c-2.636-7.811-7.995-12.565-15.987-14.368c-3.657-0.825-7.409-0.916-11.135-1.108c-6.789-0.352-13.585-0.619-20.381-0.846
	c-5.367-0.18-10.737-0.295-16.108-0.351c-5.607-0.059-11.217-0.013-16.825-0.013c-9.433-0.107-18.862,0.012-28.292,0.262
	c-3.151,0.084-6.304,0.126-9.454,0.257c-6.064,0.253-12.129,0.525-18.19,0.854c-2.997,0.162-6.01,0.316-8.941,1.035
	c-6.236,1.53-11.133,4.877-14.06,10.728c-2.001,4-3.199,8.282-3.732,12.699c-0.956,7.912-1.541,15.861-1.612,23.833
	c-0.064,7.098-0.057,14.198,0.051,21.294c0.089,5.807,0.579,11.597,1.098,17.384c0.388,4.318,1.171,8.531,2.466,12.677
	c2.596,8.311,8.197,13.145,16.667,14.773c4.709,0.905,9.479,1.306,14.263,1.495c6.678,0.264,13.358,0.509,20.039,0.696
	c5.982,0.167,11.966,0.271,17.95,0.354c6.892,0.097,13.785,0.167,20.677,0.061c5.604-0.084,11.207-0.211,16.812-0.302
	c8.844-0.146,17.682-0.481,26.512-0.956c3.873-0.208,7.771-0.297,11.59-1.047c6.596-1.296,11.811-4.638,14.971-10.71
	c2.106-4.049,3.305-8.43,3.849-12.938c0.96-7.913,1.536-15.863,1.607-23.837C184.338,102.305,184.331,95.234,184.221,88.167z
	 M120.749,102.047c-12.269,6.36-24.541,12.716-36.809,19.075c-1.369,0.71-1.364,0.721-1.364-0.796
	c-0.001-14.892-0.005-29.784-0.007-44.675c0-0.117,0.011-0.235-0.001-0.351c-0.074-0.698,0.089-0.88,0.789-0.507
	c3.32,1.769,6.664,3.497,10,5.237c11.275,5.883,22.549,11.766,33.823,17.651c0.254,0.132,0.498,0.281,0.924,0.522
	C125.547,99.54,123.152,100.801,120.749,102.047z"/>
</svg>
