<?xml version="1.0" standalone="no"?>
<!DOCTYPE svg PUBLIC "-//W3C//DTD SVG 20010904//EN"
 "http://www.w3.org/TR/2001/REC-SVG-20010904/DTD/svg10.dtd">
<svg version="1.0" xmlns="http://www.w3.org/2000/svg"
 width="512.000000pt" height="512.000000pt" viewBox="0 0 512.000000 512.000000"
 preserveAspectRatio="xMidYMid meet">
<metadata>
Created by potrace 1.11, written by Peter Selinger 2001-2013
</metadata>
<g transform="translate(0.000000,512.000000) scale(0.100000,-0.100000)"
fill="#000000" stroke="none">
<path d="M2403 4139 c-248 -36 -431 -182 -515 -412 -56 -155 -58 -187 -58
-1167 0 -952 3 -1009 49 -1143 54 -155 164 -293 286 -359 219 -118 594 -114
804 9 67 39 168 139 206 205 90 154 115 291 115 646 l0 252 -232 -2 -233 -3
-5 -285 c-4 -246 -7 -290 -23 -325 -40 -88 -114 -131 -227 -129 -85 1 -128 16
-173 62 -76 78 -72 20 -75 1027 -2 566 1 924 7 964 22 141 91 209 218 218 122
9 204 -33 247 -127 19 -40 22 -69 26 -275 l5 -230 233 -3 232 -2 0 197 c0 229
-15 353 -58 470 -86 235 -266 376 -527 412 -88 13 -213 12 -302 0z"/>
</g>
</svg>
