<?xml version="1.0" encoding="utf-8"?>
<!-- Generator: Adobe Illustrator 16.0.0, SVG Export Plug-In . SVG Version: 6.00 Build 0)  -->
<!DOCTYPE svg PUBLIC "-//W3C//DTD SVG 1.1//EN" "http://www.w3.org/Graphics/SVG/1.1/DTD/svg11.dtd">
<svg version="1.1" id="Layer_1" xmlns="http://www.w3.org/2000/svg" xmlns:xlink="http://www.w3.org/1999/xlink" x="0px" y="0px"
	 width="294.945px" height="251px" viewBox="0 0 294.945 251" enable-background="new 0 0 294.945 251" xml:space="preserve">
<text transform="matrix(1 0 0 1 4 227.2271)" fill="#231F20" font-family="'Arial-BoldMT'" font-size="24">E</text>
<text transform="matrix(1 0 0 1 19.7681 227.2271)" fill="#231F20" font-family="'Arial-BoldMT'" font-size="24">U</text>
<text transform="matrix(1 0 0 1 37.0962 227.2271)" fill="#231F20" font-family="'Arial-BoldMT'" font-size="24">R</text>
<text transform="matrix(1 0 0 1 54.2559 227.2271)" fill="#231F20" font-family="'Arial-BoldMT'" font-size="24">O</text>
<text transform="matrix(1 0 0 1 72.9282 227.2271)" fill="#231F20" font-family="'Arial-BoldMT'" font-size="24">P</text>
<text transform="matrix(1 0 0 1 89.0078 227.2271)" fill="#231F20" font-family="'Arial-BoldMT'" font-size="24">EAN UNION</text>
<rect fill="#FFFFFF" width="294.945" height="200.344"/>
<rect x="5.672" y="5.493" fill="#164194" width="283.602" height="189.07"/>
<polygon fill="#FFF100" points="141.43,46.688 147.413,42.321 153.398,46.688 151.12,39.626 157.199,35.258 149.706,35.258 
	147.413,28.11 145.12,35.266 137.633,35.258 143.706,39.626 "/>
<polygon fill="#FFF100" points="110.461,55.008 116.445,50.641 122.426,55.008 120.152,47.946 126.227,43.578 118.734,43.578 
	116.441,36.422 114.149,43.586 106.66,43.578 112.734,47.946 "/>
<polygon fill="#FFF100" points="93.785,59.133 91.492,66.297 84.004,66.289 90.078,70.656 87.801,77.719 93.785,73.352 
	99.769,77.719 97.492,70.656 103.566,66.289 96.078,66.289 "/>
<polygon fill="#FFF100" points="85.473,104.282 91.453,108.648 89.18,101.586 95.253,97.22 87.766,97.22 85.473,90.062 
	83.18,97.234 75.688,97.22 81.766,101.586 79.488,108.648 "/>
<polygon fill="#FFF100" points="96.078,128.242 93.785,121.086 91.492,128.25 84.004,128.242 90.078,132.609 87.801,139.672 
	93.785,135.297 99.769,139.672 97.492,132.609 103.566,128.242 "/>
<polygon fill="#FFF100" points="118.781,150.945 116.488,143.797 114.199,150.953 106.707,150.945 112.781,155.312 110.508,162.375 
	116.492,158.008 122.472,162.375 120.199,155.312 126.273,150.945 "/>
<polygon fill="#FFF100" points="149.711,159.172 147.418,152.016 145.129,159.18 137.637,159.172 143.711,163.539 141.438,170.602 
	147.422,166.234 153.401,170.602 151.125,163.539 157.203,159.172 "/>
<polygon fill="#FFF100" points="180.641,150.945 178.352,143.797 176.055,150.953 168.57,150.945 174.641,155.312 172.367,162.375 
	178.352,158.008 184.335,162.375 182.055,155.312 188.133,150.945 "/>
<polygon fill="#FFF100" points="203.352,128.242 201.055,121.086 198.758,128.25 191.273,128.242 197.352,132.609 195.07,139.672 
	201.055,135.297 207.039,139.672 204.758,132.609 210.835,128.242 "/>
<polygon fill="#FFF100" points="219.062,97.133 211.57,97.133 209.273,89.977 206.984,97.141 199.492,97.133 205.57,101.5 
	203.296,108.563 209.273,104.188 215.257,108.563 212.984,101.5 "/>
<polygon fill="#FFF100" points="195.07,77.625 201.054,73.258 207.039,77.625 204.758,70.563 210.836,66.203 203.352,66.203 
	201.054,59.047 198.758,66.211 191.273,66.203 197.352,70.563 "/>
<polygon fill="#FFF100" points="178.438,36.43 176.148,43.594 168.656,43.578 174.727,47.953 172.453,55.016 178.445,50.641 
	184.421,55.016 182.148,47.953 188.227,43.578 180.727,43.578 "/>
<text transform="matrix(1 0 0 1 4 247.7402)" fill="#231F20" font-family="'ArialMT'" font-size="15">European Regional Development Fund</text>
</svg>
