<?xml version="1.0" encoding="utf-8"?>
<!-- Generator: Adobe Illustrator 12.0.0, SVG Export Plug-In . SVG Version: 6.00 Build 51448)  -->
<!DOCTYPE svg PUBLIC "-//W3C//DTD SVG 1.1//EN" "http://www.w3.org/Graphics/SVG/1.1/DTD/svg11.dtd" [
	<!ENTITY ns_flows "http://ns.adobe.com/Flows/1.0/">
	<!ENTITY ns_extend "http://ns.adobe.com/Extensibility/1.0/">
	<!ENTITY ns_ai "http://ns.adobe.com/AdobeIllustrator/10.0/">
	<!ENTITY ns_graphs "http://ns.adobe.com/Graphs/1.0/">
	<!ENTITY ns_svg "http://www.w3.org/2000/svg">
	<!ENTITY ns_xlink "http://www.w3.org/1999/xlink">
]>
<svg  version="1.1" id="Layer_1" xmlns:x="&ns_extend;" xmlns:i="&ns_ai;" xmlns:graph="&ns_graphs;"
	 xmlns="&ns_svg;" xmlns:xlink="&ns_xlink;" xmlns:a="http://ns.adobe.com/AdobeSVGViewerExtensions/3.0/"
	 width="498.729" height="625.161" viewBox="0 0 498.729 625.161"
	 style="overflow:visible;enable-background:new 0 0 498.729 625.161;" xml:space="preserve">
<g>
	<path d="M41.965,275.842c-1.718,0-2.697-0.232-3.67-0.881c-1.535-1.023-3.16-3.811-4.088-5.391
		c-1.582-2.742-3.347-5.67-5.019-8.133c-0.282,0.045-0.512,0.045-0.699,0.045c-0.465,0-0.836-0.045-1.299-0.045v2.463
		c0,1.254,0.045,2.51,0.045,3.764c0.049,2.51,0.093,3.58,0.464,4.553c0.467,1.208,1.303,1.812,2.834,1.955v1.297l-1.069-0.045
		c-1.209-0.047-2.88,0-5.064,0c-2.137,0-3.811-0.047-5.018,0l-1.118,0.045v-1.297c1.165-0.096,1.719-0.326,2.278-0.934
		c0.512-0.603,0.837-1.439,0.932-2.507c0.139-1.395,0.185-2.229,0.185-6.83v-7.807c0-5.668-0.185-7.063-0.513-8.363
		c-0.324-1.254-1.297-1.766-2.881-1.951v-1.301c0.932,0.093,1.861,0.047,2.79,0.047c2.416,0,3.16,0,6.041-0.141
		c2.51-0.094,3.951-0.139,5.064-0.139c3.161,0,5.065,0.465,6.645,1.578c1.766,1.254,2.927,3.672,2.927,6.088
		c0,3.812-2.51,6.924-6.785,8.504c1.767,2.229,3.16,4.459,4.789,7.016c1.486,2.367,2.973,4.416,4.135,5.578
		c0.65,0.693,1.066,0.928,1.949,1.162v1.297C44.614,275.75,43.405,275.842,41.965,275.842z M30.023,246.756
		c-0.93,0-1.768,0.137-2.789,0.371c0,2.74-0.045,7.713-0.045,11.57c0.51,0.092,1.44,0.139,2.045,0.139
		c3.809,0,6.367-2.369,6.367-5.992C35.602,249.311,33.229,246.756,30.023,246.756z"/>
	<path d="M57.244,247.373l-1.805-1.076l3.803-5.602l4.414,0.805L57.244,247.373z M65.807,274.893
		c-0.346,0.576-0.73,0.693-2.843,0.693c-1.305,0-2.57-0.078-3.875-0.117c-1.844-0.035-3.688-0.113-5.528-0.113
		c-1.843,0-3.685,0.039-5.527,0.113v-1.073c1.727-0.154,2.494-1.152,2.648-2.842c0.116-1.152,0.116-2.38,0.116-4.375v-10.863
		c0-2.033-0.116-2.955-0.424-3.76c-0.346-1-1.037-1.461-2.339-1.615v-1.075h17.964c0,1.114-0.037,2.266-0.037,3.377
		c0,0.922-0.039,1.805,0.037,2.727h-1.38c-0.271-2.955-1.537-3.762-6.106-3.762c-0.846,0-1.957,0.038-2.878,0.077
		c-0.077,1.496-0.114,1.998-0.114,4.223v4.451c0.574,0.04,1.036,0.04,1.725,0.04c3.995,0,5.223-0.574,5.451-2.648h1.383
		c-0.076,0.615-0.076,1.883-0.076,3.801c0,1.961,0.037,3.109,0.076,3.723h-1.383c-0.113-2.186-1.152-2.725-5.103-2.725
		c-0.694,0-1.381,0.039-2.073,0.039c0,2.418,0.037,4.836,0.037,7.254c0,1.613,0.268,2.148,1.19,2.38
		c0.576,0.155,1.459,0.194,2.648,0.194c4.146,0,5.606-0.924,6.488-4.07l1.498,0.307C66.842,271.939,66.227,274.166,65.807,274.893z"
		/>
	<path d="M81.813,264.072c-0.385,0-0.574,0-1.074-0.041l-0.846-1.957c3.609-0.23,5.604-1.996,5.604-4.912
		c0-3.072-2.11-5.26-5.028-5.26c-0.458,0-0.846,0.039-1.457,0.152c0,2.381-0.078,4.76-0.078,7.141v6.717
		c0,5.027,0.039,5.873,0.422,6.871c0.343,1,1.037,1.498,2.342,1.613v1.073l-0.924-0.035c-0.996-0.039-2.376-0.039-4.221-0.039
		c-1.805,0-3.222,0-4.184,0.039l-0.921,0.035v-1.073c1.729-0.154,2.496-1.152,2.65-2.842c0.113-1.152,0.113-1.839,0.113-5.642
		v-9.596c0-2.033-0.113-2.955-0.422-3.76c-0.344-1-1.035-1.461-2.341-1.615v-1.075c0.462,0.038,0.117,0.038,1.766,0.038
		c0.654,0,1.576,0,2.805-0.038c1.957-0.076,3.914-0.191,5.871-0.191c5.453,0,8.714,2.688,8.714,7.139
		C90.604,260.998,86.879,264.072,81.813,264.072z"/>
	<path d="M116.698,251.787c-0.422,0.576-0.613,1.344-0.693,2.879c-0.074,1.65-0.114,2.916-0.114,5.299
		c0,0.881,0.04,3.529,0.04,6.178c0,2.688-0.422,4.299-1.536,5.912c-1.765,2.571-4.684,3.875-8.521,3.875
		c-2.417,0-4.262-0.46-5.986-1.609c-2.689-1.73-3.724-3.996-3.724-8.064c0-4.145,0.076-5.945,0.076-7.291
		c0-1.959,0.113-3.992-0.233-5.912c-0.229-1.381-0.957-1.957-2.568-2.111v-1.075l0.882,0.038c0.997,0.041,2.416,0.041,4.258,0.041
		c1.844,0,3.262,0,4.262-0.041l0.881-0.038v1.075c-1.188,0.154-1.764,0.463-2.148,1.113c-0.344,0.575-0.499,1.346-0.538,3.034
		c-0.076,2.42-0.113,4.799-0.113,7.215c0,6.603,0.152,7.871,1.343,9.251c0.92,1.075,2.495,1.805,4.338,1.805
		c2.57,0,5.065-1.305,5.834-3.877c0.496-1.65,0.572-2.842,0.572-7.18v-3.797c0-4.377-0.116-5.721-0.535-6.373
		c-0.424-0.691-1-1.074-1.994-1.191v-1.075c1.533,0.079,2.07,0.079,3.99,0.079c1.957,0,2.494,0,4.029-0.079v1.075
		C117.659,251.059,117.119,251.289,116.698,251.787z"/>
	<path d="M140.301,273.666c-1.803,1.383-3.838,1.842-7.756,1.842c-2.07,0-4.184-0.152-6.256-0.152c-0.841,0-2.417,0-3.492,0.078
		l-0.461,0.035v-1.073c1.803-0.154,2.496-1.076,2.65-2.842c0.111-1.152,0.15-1.839,0.15-5.642v-7.254
		c0-3.57-0.039-5.105-0.419-6.102c-0.383-1-1.074-1.461-2.381-1.615v-1.075c1.766,0.079,2.801,0.079,5.26,0.079
		c2.227,0,5.566-0.117,7.791-0.117c3.533,0,6.758,1.689,6.758,5.682c0,2.957-1.843,4.953-5.49,5.875
		c4.068,0.805,6.218,3.146,6.218,6.947C142.873,270.633,142.027,272.363,140.301,273.666z M131.934,251.865
		c-0.694,0-1.383,0.076-2.073,0.076c-0.039,2.494-0.117,6.793-0.154,8.404c0.422,0.039,0.959,0.078,1.69,0.078
		c3.762,0,5.91-1.574,5.91-4.338C137.307,253.438,135.311,251.865,131.934,251.865z M132.049,262.572
		c-0.652,0-1.346,0.04-2.342,0.116c-0.039,1.037-0.039,1.229-0.039,2.994v2.265c0,2.149,0.076,3.301,0.346,4.067
		c0.309,0.963,1.226,1.424,2.84,1.424c3.261,0,5.105-1.805,5.105-5.029C137.959,264.836,135.656,262.572,132.049,262.572z"/>
	<path d="M164.553,274.932c-0.346,0.537-0.806,0.654-2.726,0.654c-0.959,0-1.955-0.039-2.917-0.078
		c-2.376-0.074-4.531-0.152-7.141-0.152c-1.957,0-3.262,0.039-4.49,0.113v-1.073c0.963-0.076,1.46-0.267,1.879-0.767
		c0.693-0.807,0.882-1.805,0.882-4.608c0-1.919,0.041-3.455,0.041-5.451v-4.107c0-5.18-0.041-5.873-0.422-6.906
		c-0.346-1-1.076-1.461-2.38-1.615v-1.075l0.963,0.038c1.033,0.041,2.451,0.041,4.373,0.041c1.881,0,3.34,0,4.338-0.041l0.959-0.038
		v1.075c-1.957,0-2.803,1.037-3.033,2.879c-0.077,0.654-0.114,1.268-0.114,5.643v6.41c0,5.335,0.037,5.99,0.537,6.527
		c0.42,0.421,1.231,0.615,2.879,0.615c2.109,0,3.26-0.232,4.221-0.771c1.077-0.574,1.881-1.725,2.264-3.338l1.459,0.385
		C165.703,271.516,164.975,274.281,164.553,274.932z"/>
	<path d="M177.905,275.434c-0.961-0.039-2.381-0.039-4.184-0.039c-1.842,0-3.223,0-4.223,0.039l-0.921,0.035v-1.073
		c1.804-0.154,2.494-1.076,2.646-2.842c0.117-1.152,0.157-1.839,0.157-5.642v-6.449c0-0.996-0.04-2.031-0.04-3.146
		c0-2.033-0.076-2.955-0.384-3.76c-0.344-1-1.075-1.461-2.379-1.615v-1.075l0.921,0.038c1,0.041,2.381,0.041,4.223,0.041
		c1.802,0,3.222,0,4.184-0.041l0.919-0.038v1.075c-1.65,0.117-2.494,1.152-2.648,2.879c-0.113,1.113-0.113,2.188-0.113,5.643v6.449
		c0,5.027,0.037,5.873,0.422,6.871c0.343,1,1.035,1.498,2.339,1.613v1.073L177.905,275.434z"/>
	<path d="M213.787,282.379c-2.994,0-6.181-0.922-9.21-2.611c-1.73-0.957-4.149-2.607-5.913-4.064
		c-1.307,0.189-1.804,0.226-3.033,0.226c-7.755,0-12.898-5.066-12.898-12.703c0-8.178,5.566-13.821,13.703-13.821
		c7.907,0,13.166,5.069,13.166,12.668c0,5.412-2.762,10.211-7.138,12.436c1.383,0.693,2.763,1.457,4.107,2.266
		c3.915,2.379,6.602,3.377,9.137,3.377c1.573,0,2.877-0.344,4.415-1.111l0.498,1.344
		C218.736,281.689,216.397,282.379,213.787,282.379z M195.67,252.02c-4.685,0-8.023,3.912-8.023,9.402
		c0,6.678,3.953,11.938,8.982,11.938c4.722,0,8.062-3.994,8.062-9.559C204.692,257.199,200.736,252.02,195.67,252.02z"/>
	<path d="M236.202,251.787c-0.422,0.576-0.616,1.344-0.691,2.879c-0.079,1.65-0.117,2.916-0.117,5.299
		c0,0.881,0.039,3.529,0.039,6.178c0,2.688-0.417,4.299-1.533,5.912c-1.768,2.571-4.684,3.875-8.523,3.875
		c-2.42,0-4.26-0.46-5.986-1.609c-2.688-1.73-3.723-3.996-3.723-8.064c0-4.145,0.078-5.945,0.078-7.291
		c0-1.959,0.112-3.992-0.232-5.912c-0.23-1.381-0.96-1.957-2.572-2.111v-1.075l0.883,0.038c1,0.041,2.42,0.041,4.259,0.041
		c1.844,0,3.264,0,4.262-0.041l0.883-0.038v1.075c-1.191,0.154-1.767,0.463-2.15,1.113c-0.344,0.575-0.499,1.346-0.536,3.034
		c-0.08,2.42-0.117,4.799-0.117,7.215c0,6.603,0.154,7.871,1.344,9.251c0.921,1.075,2.494,1.805,4.338,1.805
		c2.57,0,5.066-1.305,5.836-3.877c0.496-1.65,0.574-2.842,0.574-7.18v-3.797c0-4.377-0.115-5.721-0.537-6.373
		c-0.42-0.691-0.998-1.074-1.998-1.191v-1.075c1.537,0.079,2.074,0.079,3.992,0.079c1.959,0,2.496,0,4.032-0.079v1.075
		C237.162,251.059,236.622,251.289,236.202,251.787z"/>
	<path d="M259.614,274.893c-0.345,0.576-0.729,0.693-2.842,0.693c-1.304,0-2.57-0.078-3.878-0.117
		c-1.839-0.035-3.685-0.113-5.525-0.113c-1.842,0-3.688,0.039-5.53,0.113v-1.073c1.729-0.154,2.496-1.152,2.654-2.842
		c0.113-1.152,0.113-2.38,0.113-4.375v-10.863c0-2.033-0.113-2.955-0.426-3.76c-0.346-1-1.036-1.461-2.342-1.615v-1.075h17.968
		c0,1.114-0.038,2.266-0.038,3.377c0,0.922-0.039,1.805,0.038,2.727h-1.383c-0.269-2.955-1.537-3.762-6.105-3.762
		c-0.844,0-1.957,0.038-2.879,0.077c-0.074,1.496-0.112,1.998-0.112,4.223v4.451c0.575,0.04,1.034,0.04,1.729,0.04
		c3.989,0,5.217-0.574,5.446-2.648h1.384c-0.076,0.615-0.076,1.883-0.076,3.801c0,1.961,0.037,3.109,0.076,3.723h-1.384
		c-0.115-2.186-1.15-2.725-5.104-2.725c-0.692,0-1.38,0.039-2.071,0.039c0,2.418,0.038,4.836,0.038,7.254
		c0,1.613,0.268,2.148,1.19,2.38c0.575,0.155,1.456,0.194,2.646,0.194c4.146,0,5.604-0.924,6.487-4.07l1.499,0.307
		C260.648,271.939,260.035,274.166,259.614,274.893z"/>
	<path d="M295.126,251.958c-0.046-3.346-1.996-4.644-7.25-4.644c-1.07,0-2.09,0.045-3.251,0.137
		c-0.091,3.207-0.091,5.438-0.091,10.502c1.113,0.047,1.668,0.092,2.459,0.092c4.323,0,5.624-0.742,5.857-3.25h1.671
		c0,1.299-0.092,2.648-0.092,3.947c0,1.721,0.092,3.485,0.092,5.208h-1.671c-0.324-2.791-1.395-3.348-6.273-3.348
		c-0.835,0-1.158,0-2.043,0.044v5.208c0,1.021,0,2.137,0.046,3.343c0.093,2.555,0.28,4.788,3.296,4.975v1.297l-1.115-0.045
		c-1.162-0.047-2.881-0.047-5.062-0.047c-2.23,0-3.904,0-5.11,0.047l-1.114,0.045v-1.297c2.09-0.188,3.019-1.396,3.203-3.441
		c0.14-1.395,0.14-2.229,0.14-6.83v-11.617c0-2.465-0.14-3.575-0.508-4.553c-0.42-1.209-1.257-1.766-2.835-1.951v-1.301h21.373
		c-0.096,0.883-0.096,2.369-0.096,4.32c0,1.859,0,2.137,0.096,3.16H295.126z"/>
	<path d="M320.823,275.779c-1.422,0-2.227-0.193-3.036-0.73c-1.265-0.846-2.609-3.148-3.378-4.453
		c-1.303-2.264-2.764-4.684-4.145-6.717c-0.233,0.037-0.425,0.037-0.575,0.037c-0.383,0-0.688-0.037-1.074-0.037v2.033
		c0,1.039,0.04,2.072,0.04,3.109c0.038,2.073,0.074,2.956,0.384,3.762c0.38,1,1.071,1.498,2.34,1.613v1.073l-0.885-0.035
		c-0.997-0.039-2.379,0-4.184,0c-1.766,0-3.145-0.039-4.145,0l-0.922,0.035v-1.073c0.959-0.076,1.42-0.267,1.886-0.767
		c0.419-0.502,0.688-1.191,0.764-2.075c0.117-1.152,0.155-1.839,0.155-5.642v-6.449c0-4.682-0.155-5.834-0.423-6.906
		c-0.27-1.039-1.074-1.461-2.382-1.615v-1.075c0.771,0.079,1.537,0.038,2.305,0.038c1.995,0,2.607,0,4.99-0.113
		c2.072-0.076,3.264-0.116,4.18-0.116c2.612,0,4.188,0.387,5.491,1.305c1.46,1.039,2.421,3.033,2.421,5.027
		c0,3.15-2.075,5.721-5.607,7.025c1.463,1.842,2.609,3.686,3.958,5.797c1.226,1.955,2.457,3.648,3.416,4.607
		c0.537,0.572,0.88,0.766,1.608,0.958v1.073C323.01,275.703,322.01,275.779,320.823,275.779z M310.953,251.748
		c-0.765,0-1.456,0.117-2.298,0.306c0,2.268-0.04,6.374-0.04,9.559c0.424,0.079,1.188,0.116,1.688,0.116
		c3.15,0,5.261-1.958,5.261-4.951C315.563,253.859,313.607,251.748,310.953,251.748z"/>
	<path d="M348.522,275.434c-0.962-0.039-2.341-0.039-4.104-0.039c-1.808,0-3.189,0-4.146,0.039l-0.883,0.035v-1.073
		c1.225-0.076,1.958-0.73,1.958-1.806c0-0.383-0.118-0.92-0.505-2.07c-0.46-1.42-0.765-2.381-1.225-3.686h-7.371l-0.768,2.229
		c-0.577,1.723-0.88,2.992-0.88,3.643c0,1.117,0.498,1.615,1.724,1.691v1.073c-1.455-0.035-1.995-0.074-3.837-0.074
		c-1.806,0-2.343,0.039-3.802,0.074v-1.073c0.577-0.076,0.771-0.154,1.192-0.539c0.727-0.652,1.459-1.995,2.609-4.912l3.643-9.29
		c1.004-2.494,2.498-6.525,3.54-9.789h2.607c0.343,1.192,1.147,3.075,1.688,4.455l5.408,13.854c0.922,2.344,1.575,3.725,2.079,4.608
		c0.533,0.92,1.07,1.383,1.993,1.613v1.073L348.522,275.434z M336.085,256.623c-0.997,2.609-2.38,5.988-2.953,7.869h5.678
		L336.085,256.623z"/>
	<path d="M375.846,252.094c-0.424,0.691-0.503,1.344-0.576,3.34c-0.118,3.453-0.155,8.83-0.155,11.4v5.872
		c0,0.883,0.117,2.227,0.117,2.764h-2.609c-2.492-3.262-7.678-9.596-7.678-9.596c-0.613-0.766-5.414-6.678-7.831-9.633
		c0,0.807-0.04,0.305-0.04,2.803v2.492c0,2.881,0.04,5.721,0.152,8.602c0.08,1.609,0.23,2.416,0.617,3.144
		c0.386,0.768,0.958,1.075,2.072,1.115v1.073c-1.346-0.074-2.728-0.074-4.068-0.074c-1.384,0-2.729,0-4.107,0.074v-1.073
		c2.536-0.076,2.607-2.189,2.684-4.183c0.04-1.611,0.077-2.957,0.077-5.414v-8.1c0-3.186-0.153-3.953-0.729-4.797
		c-0.379-0.613-0.883-0.844-2.032-0.961v-1.075c1.268,0.079,1.728,0.079,3.341,0.079c1.574,0,2.033,0,3.302-0.079
		c0.461,0.844,1.188,1.614,3.835,4.838c3.762,4.566,7.143,8.443,10.326,12.436v-8.37c0-3.837-0.076-4.796-0.271-5.792
		c-0.266-1.23-0.997-1.844-2.416-2.037v-1.075c1.57,0.079,2.114,0.079,4.066,0.079c1.957,0,2.495,0,4.073-0.079v1.075
		C376.957,250.98,376.382,251.172,375.846,252.094z"/>
	<path d="M402.635,274.549c-2.499,0.998-4.688,1.38-7.72,1.38l-0.348,1.538c0.196-0.039,0.579,0,0.733,0
		c1.456,0,2.42,1.037,2.42,2.301c0,2.074-1.653,3.533-4.266,3.533c-0.765,0-1.454-0.154-2.3-0.498l0.537-1.496
		c0.5,0.189,0.959,0.305,1.381,0.305c1.077,0,1.805-0.537,1.805-1.499c0-0.765-0.382-1.226-0.956-1.226
		c-0.315,0-0.58,0.115-0.849,0.305l-0.843-0.229l0.763-3.109c-3.372-0.307-5.832-1.42-7.904-3.568
		c-2.379-2.42-3.648-5.723-3.648-9.598c0-8.292,5.34-13.282,14.127-13.282c2.649,0,5.221,0.385,7.446,1.115
		c-0.075,0.883-0.075,1.764-0.075,2.61c0,0.65,0.04,2.033,0.075,2.916h-1.494c-0.615-2.725-2.803-4.182-6.296-4.182
		c-5.411,0-8.714,3.609-8.714,9.593c0,6.913,3.875,11.94,9.214,11.94c3.221,0,5.412-1.613,6.296-4.686l1.454,0.308
		C403.132,270.324,402.787,272.516,402.635,274.549z"/>
	<path d="M429.265,275.434c-0.96-0.039-2.342-0.039-4.106-0.039c-1.808,0-3.187,0-4.145,0.039l-0.886,0.035v-1.073
		c1.228-0.076,1.96-0.73,1.96-1.806c0-0.383-0.116-0.92-0.503-2.07c-0.46-1.42-0.766-2.381-1.225-3.686h-7.371l-0.769,2.229
		c-0.574,1.723-0.883,2.992-0.883,3.643c0,1.117,0.5,1.615,1.726,1.691v1.073c-1.457-0.035-1.994-0.074-3.832-0.074
		c-1.812,0-2.347,0.039-3.805,0.074v-1.073c0.576-0.076,0.766-0.154,1.191-0.539c0.729-0.652,1.458-1.995,2.613-4.912l3.64-9.29
		c1.004-2.494,2.497-6.525,3.534-9.789h2.612c0.343,1.192,1.147,3.075,1.685,4.455l5.415,13.854
		c0.917,2.344,1.573,3.725,2.073,4.608c0.535,0.92,1.074,1.383,1.998,1.613v1.073L429.265,275.434z M416.827,256.623
		c-0.996,2.609-2.382,5.988-2.951,7.869h5.68L416.827,256.623z"/>
	<path d="M441.813,275.434c-0.964-0.039-2.383-0.039-4.19-0.039c-1.838,0-3.225,0-4.221,0.039l-0.92,0.035v-1.073
		c1.805-0.154,2.492-1.076,2.646-2.842c0.114-1.152,0.154-1.839,0.154-5.642v-6.449c0-0.996-0.04-2.031-0.04-3.146
		c0-2.033-0.074-2.955-0.379-3.76c-0.35-1-1.075-1.461-2.382-1.615v-1.075l0.92,0.038c0.996,0.041,2.383,0.041,4.221,0.041
		c1.808,0,3.227,0,4.19-0.041l0.918-0.038v1.075c-1.654,0.117-2.495,1.152-2.653,2.879c-0.113,1.113-0.113,2.188-0.113,5.643v6.449
		c0,5.027,0.037,5.873,0.425,6.871c0.346,1,1.037,1.498,2.342,1.613v1.073L441.813,275.434z"/>
	<path d="M453.739,275.929c-2.225,0-3.838-0.304-6.448-1.304c-0.114-1.459-0.383-3.686-0.693-5.525l1.462-0.233
		c0.92,3.11,2.955,4.721,5.909,4.721c2.725,0,4.57-1.418,4.57-3.567c0-1.728-1.193-2.919-2.916-3.992l-4.034-2.574
		c-2.762-1.764-4.374-3.607-4.374-6.986c0-4.299,3.26-7.063,8.329-7.063c2.46,0,4.491,0.461,6.296,1.383
		c-0.041,0.919-0.041,1.23-0.041,2.418c0,1.383,0,1.766,0.041,2.84h-1.463c-0.534-2.762-2.262-4.299-4.908-4.299
		c-2.38,0-4.111,1.496-4.111,3.609c0,1.842,1.271,3.07,3.301,4.375l3.262,2.111c3.111,2.035,4.878,3.994,4.878,7.062
		C462.797,273.088,459.114,275.929,453.739,275.929z"/>
	<path d="M484.603,274.893c-0.348,0.576-0.73,0.693-2.842,0.693c-1.302,0-2.572-0.078-3.876-0.117
		c-1.845-0.035-3.687-0.113-5.528-0.113c-1.843,0-3.688,0.039-5.526,0.113v-1.073c1.725-0.154,2.493-1.152,2.648-2.842
		c0.114-1.152,0.114-2.38,0.114-4.375v-10.863c0-2.033-0.114-2.955-0.42-3.76c-0.354-1-1.043-1.461-2.343-1.615v-1.075h17.963
		c0,1.114-0.042,2.266-0.042,3.377c0,0.922-0.038,1.805,0.042,2.727h-1.384c-0.265-2.955-1.534-3.762-6.104-3.762
		c-0.845,0-1.958,0.038-2.878,0.077c-0.076,1.496-0.114,1.998-0.114,4.223v4.451c0.577,0.04,1.034,0.04,1.728,0.04
		c3.992,0,5.221-0.574,5.452-2.648h1.38c-0.078,0.615-0.078,1.883-0.078,3.801c0,1.961,0.041,3.109,0.078,3.723h-1.38
		c-0.116-2.186-1.153-2.725-5.107-2.725c-0.69,0-1.38,0.039-2.072,0.039c0,2.418,0.038,4.836,0.038,7.254
		c0,1.613,0.268,2.148,1.189,2.38c0.578,0.155,1.46,0.194,2.648,0.194c4.146,0,5.605-0.924,6.487-4.07l1.5,0.307
		C485.636,271.939,485.023,274.166,484.603,274.893z"/>
	<path d="M31.424,209.771c-0.338,0.448-0.9,0.596-2.244,0.596c-1.83,0-3.625-0.111-5.458-0.148c-1.57-0.037-2.767-0.076-3.587-0.076
		c-1.121,0-3.85,0.039-4.635,0.076l-0.524,0.037l0.15-0.787c1.121-0.109,1.795-0.448,2.319-1.156
		c0.595-0.748,0.97-1.793,1.494-3.887c0.487-2.057,0.709-3.289,1.495-7.139l0.597-2.951c0.598-2.992,0.823-4.748,0.823-5.684
		c0-1.645-0.598-2.314-2.206-2.502l0.15-0.822c0.225,0.037,0.412,0.037,0.524,0.037c1.383,0,2.729,0.037,4.111,0.037
		c2.166,0,3.585-0.037,4.225-0.037c0.111,0,0.334,0,0.596-0.037l-0.151,0.822c-1.158,0.072-1.793,0.373-2.355,1.121
		c-0.931,1.193-1.455,2.8-2.842,10.016l-0.482,2.504c-0.6,3.064-0.822,4.109-1.01,5.492c-0.076,0.449-0.113,0.936-0.113,1.16
		c0,1.457,0.75,1.906,3.141,1.906c4.227,0,5.794-0.859,7.173-3.924l1.01,0.373C32.731,207.266,31.872,209.17,31.424,209.771z"/>
	<path d="M42.518,191.57c-1.158,0-1.908-0.711-1.908-1.795c0-1.348,0.975-2.281,2.318-2.281c1.124,0,1.833,0.674,1.833,1.76
		C44.76,190.598,43.824,191.57,42.518,191.57z M38.443,210.666c-0.748,0-1.232-0.41-1.232-1.083c0-0.335,0.112-0.935,0.299-1.757
		c0.486-1.98,1.158-4.672,1.531-6.092c0.523-1.943,0.75-3.291,0.75-3.812c0-0.486-0.227-0.707-0.639-0.707
		c-0.338,0-0.67,0.109-1.457,0.334l-0.26,0.074l-0.113-1.045c2.053-0.785,4.072-1.271,5.083-1.271c0.561,0,0.783,0.185,0.783,0.635
		c0,0.447-0.185,1.646-0.859,4.26l-0.561,2.203c-0.934,3.629-1.16,4.898-1.16,5.496c0,0.561,0.3,0.898,0.861,0.898
		c0.338,0,1.01-0.15,2.056-0.521l0.074,1.044C41.622,210.105,39.489,210.666,38.443,210.666z"/>
	<path d="M59.031,208.91c-1.458,1.271-3.181,1.793-5.832,1.793c-2.916,0-4.672-0.484-4.672-1.234c0-0.299,0.037-0.67,0.408-2.242
		l1.948-8.482c0.631-2.729,1.121-4.895,1.791-7.961c0.375-1.793,0.525-2.766,0.525-3.25c0-0.449-0.227-0.711-0.636-0.711
		c-0.26,0-1.084,0.186-1.643,0.375l-0.037-1.084l0.447-0.15c2.017-0.674,3.699-1.047,4.484-1.047c0.487,0,0.786,0.223,0.786,0.637
		c0,0.41-0.188,1.344-0.823,4.109l-1.119,4.934c-0.375,1.607-0.489,2.203-0.6,2.729c2.354-1.383,4.41-2.018,6.279-2.018
		c2.277,0,3.398,1.158,3.398,3.514C63.736,202.295,61.758,206.554,59.031,208.91z M58.994,196.912c-0.676,0-1.498,0.266-2.545,0.824
		c-1.084,0.561-1.869,1.158-2.279,1.719c-0.486,0.672-0.898,1.83-1.459,4.297c-0.559,2.318-0.822,3.775-0.822,4.297
		c0,0.713,0.822,1.121,2.32,1.121c1.531,0,2.839-0.709,3.81-2.09c1.495-2.131,2.617-5.533,2.617-7.963
		C60.637,197.697,60.077,196.912,58.994,196.912z"/>
	<path d="M71.887,204.273c-0.264,0-0.599,0-1.085-0.036c-0.113,0.674-0.149,1.235-0.149,1.795c0,1.904,0.672,2.914,1.979,2.914
		c1.197,0,2.692-0.634,4.896-2.018l0.412,1.272c-2.766,1.719-4.859,2.502-6.763,2.502c-2.319,0-3.59-1.381-3.59-3.885
		c0-6.168,4.186-11.512,9.008-11.512c2.355,0,3.737,1.082,3.737,2.951C80.331,201.695,76.67,204.273,71.887,204.273z
		 M75.736,196.799c-1.797,0-3.703,2.469-4.635,6.094h0.371c3.475,0,6.094-1.83,6.094-4.223
		C77.567,197.623,76.743,196.799,75.736,196.799z"/>
	<path d="M95.318,200.127l-1.232-0.111c0.073-0.449,0.112-0.973,0.112-1.457c0-0.674-0.6-1.16-1.534-1.16
		c-0.561,0-1.121,0.338-1.605,0.898c-1.42,1.605-1.982,4.146-2.803,8.295l-0.712,3.627c-1.418,0.074-1.793,0.111-3.25,0.299
		c0.371-1.422,0.634-2.543,0.933-3.812l0.822-3.475c0.562-2.355,0.824-3.814,0.824-4.598c0-0.936-0.225-1.346-0.671-1.346
		c-0.227,0-0.561,0.074-0.938,0.186l-0.932,0.301l-0.113-1.121c1.83-0.748,3.924-1.346,4.858-1.346c0.373,0,0.6,0.148,0.674,0.523
		c0.113,0.447,0.188,0.969,0.225,1.605c1.681-1.383,3.176-2.168,4.223-2.168c0.708,0,1.607,0.377,2.468,1.01
		C96.067,197.623,95.618,198.857,95.318,200.127z"/>
	<path d="M107.986,197.588l-3.101-0.076l-1.572,7.66c-0.411,1.982-0.445,2.543-0.445,2.84c0,0.523,0.259,0.824,0.746,0.824
		c0.262,0,0.822-0.15,1.718-0.412l0.374-0.111l0.113,1.083c-1.943,0.786-3.962,1.307-5.045,1.307c-0.785,0-1.269-0.373-1.269-1.082
		c0-0.637,0.148-1.572,0.447-2.729c0.337-1.309,0.597-2.393,0.898-3.85l1.156-5.531l-1.982,0.037l0.266-1.197
		c2.539-0.447,3.399-2.465,4.109-4.635l1.793-0.373l-0.936,4.412l3.104-0.039L107.986,197.588z"/>
	<path d="M119.461,192.99l-1.199-0.973l4.559-5.158l3.365,0.822L119.461,192.99z M115.313,204.273c-0.262,0-0.6,0-1.086-0.036
		c-0.113,0.674-0.15,1.235-0.15,1.795c0,1.904,0.674,2.914,1.982,2.914c1.193,0,2.689-0.634,4.896-2.018l0.408,1.272
		c-2.766,1.719-4.856,2.502-6.764,2.502c-2.315,0-3.588-1.381-3.588-3.885c0-6.168,4.188-11.512,9.008-11.512
		c2.356,0,3.738,1.082,3.738,2.951C123.758,201.695,120.092,204.273,115.313,204.273z M119.159,196.799
		c-1.793,0-3.699,2.469-4.633,6.094h0.373c3.479,0,6.092-1.83,6.092-4.223C120.99,197.623,120.168,196.799,119.159,196.799z"/>
	<path d="M183.676,182.824l-1.197-0.973l4.558-5.156l3.402,0.822L183.676,182.824z M190.776,190.783h-1.083
		c0.038-0.41,0.071-0.559,0.071-0.822c0-2.055-1.342-2.764-5.08-2.764c-1.235,0-2.428,0-3.662,0.109
		c-0.786,3.104-1.307,5.795-1.944,9.121c0.598,0,0.783,0,1.381,0c2.395,0,3.402-0.039,4.263-0.186
		c1.383-0.261,2.205-1.086,2.616-2.582h1.008c-0.522,2.207-1.158,5.346-1.418,7.252h-1.012c0.04-0.262,0.078-0.484,0.078-0.637
		c0-1.605-1.009-2.129-4.076-2.129c-1.833,0-2.502,0.038-3.176,0.075c-0.186,0.934,0,0.113-0.862,4.41
		c-0.408,2.092-0.561,3.402-0.561,4.074c0,1.307,0.676,1.645,3.178,1.645c4.709,0,6.166-0.748,7.624-3.961l0.935,0.373
		c-0.822,2.465-1.718,4.447-2.24,5.084c-0.375,0.41-0.861,0.521-2.43,0.521c-1.309,0-2.652-0.037-3.96-0.074
		c-1.721-0.037-3.479-0.074-5.197-0.074c-1.756,0-3.477,0.037-5.232,0.037l0.148-0.787c1.124-0.109,1.797-0.448,2.319-1.156
		c0.597-0.748,0.972-1.793,1.494-3.887c0.485-2.094,0.637-2.953,1.495-7.139l0.6-2.951c0.6-2.916,0.822-4.748,0.822-5.684
		c0-1.645-0.596-2.314-2.205-2.502l0.15-0.822h17.004C191.412,187.008,191.039,189.027,190.776,190.783z"/>
	<path d="M209.239,197.549l-2.543-0.037c0.449,0.785,0.6,1.383,0.6,2.242c0,3.438-2.879,6.092-6.615,6.092
		c-0.711,0-1.232-0.076-2.02-0.299c-0.934,0.559-1.23,0.82-1.23,1.158c0,0.412,0.408,0.598,2.055,1.121l2.99,0.936
		c2.99,0.935,4.449,1.828,4.449,3.998c0,3.961-3.926,7.064-8.935,7.064c-4.112,0-6.613-1.945-6.613-5.121
		c0-2.916,1.867-4.299,4.931-5.082c-1.869-0.674-2.281-0.973-2.281-1.609c0-0.82,1.084-1.833,3.328-3.062
		c-1.159-0.822-1.719-1.906-1.719-3.402c0-3.551,2.841-6.24,6.578-6.24c0.971,0,1.681,0.111,2.501,0.41h4.936L209.239,197.549z
		 M202.098,196.725c-2.016,0-3.658,2.133-3.658,4.674c0,1.756,1.008,2.953,2.461,2.953c1.984,0,3.592-2.057,3.592-4.598
		C204.493,197.885,203.557,196.725,202.098,196.725z M202.662,211.863c-1.273-0.486-2.805-1.011-4.373-1.458
		c-2.58,0.637-4.373,2.542-4.373,4.708c0,2.022,1.719,3.366,4.408,3.366c3.252,0,6.243-2.208,6.243-4.598
		C204.567,212.984,204.006,212.387,202.662,211.863z"/>
	<path d="M223.28,210.703c-0.672,0-0.895-0.41-1.232-2.242c-2.764,1.57-4.786,2.279-6.762,2.279c-2.246,0-3.553-1.157-3.553-3.213
		c0-1.98,0.973-4.783,2.469-7.1c2.017-3.141,4.52-5.121,8.332-5.121c1.681,0,3.214,0.299,4.822,0.709l-0.188,0.597
		c-1.346,4.299-2.317,9.045-2.317,10.653c0,1.012,0.225,1.57,0.672,1.57c0.299,0,1.083-0.225,2.02-0.559l0.111,1.154
		C225.748,210.143,223.916,210.703,223.28,210.703z M221.561,196.875c-1.492,0-2.988,1.121-4.259,3.215
		c-1.42,2.279-2.428,5.306-2.428,7.289c0,1.156,0.561,1.791,1.495,1.791c1.383,0,3.81-1.232,4.746-2.164
		c0.523-0.525,0.822-1.273,1.195-2.691c0.597-2.281,1.16-4.412,1.496-6.879C222.981,197.062,222.198,196.875,221.561,196.875z"/>
	<path d="M239.838,188.729c-1.235,4.968-2.469,10.502-3.661,15.771c-0.376,1.719-0.56,2.842-0.56,3.4
		c0,0.561,0.259,0.824,0.818,0.824c0.375,0,1.051-0.15,2.059-0.447l0.073,1.044c-1.905,0.747-4.223,1.381-5.229,1.381
		c-0.715,0-1.125-0.41-1.125-1.12c0-0.525,0.115-1.195,0.676-3.55c1.154-4.934,2.425-10.203,3.435-14.912
		c0.448-2.168,0.672-3.252,0.672-3.588c0-0.449-0.225-0.674-0.635-0.674c-0.373,0-1.047,0.148-1.644,0.375l-0.074-1.122
		c1.906-0.673,3.998-1.197,5.045-1.197c0.525,0,0.785,0.223,0.785,0.637C240.473,185.926,240.324,186.785,239.838,188.729z"/>
	<path d="M249.101,191.57c-1.159,0-1.903-0.711-1.903-1.795c0-1.348,0.971-2.281,2.317-2.281c1.12,0,1.831,0.674,1.831,1.76
		C251.346,190.598,250.41,191.57,249.101,191.57z M245.03,210.666c-0.749,0-1.236-0.41-1.236-1.083c0-0.335,0.115-0.935,0.3-1.757
		c0.487-1.98,1.158-4.672,1.536-6.092c0.521-1.943,0.743-3.291,0.743-3.812c0-0.486-0.222-0.707-0.633-0.707
		c-0.338,0-0.676,0.109-1.459,0.334l-0.263,0.074l-0.109-1.045c2.055-0.785,4.07-1.271,5.08-1.271c0.56,0,0.784,0.185,0.784,0.635
		c0,0.447-0.185,1.646-0.854,4.26l-0.562,2.203c-0.938,3.629-1.158,4.898-1.158,5.496c0,0.561,0.299,0.898,0.858,0.898
		c0.337,0,1.008-0.15,2.055-0.521l0.077,1.044C248.206,210.105,246.074,210.666,245.03,210.666z"/>
	<path d="M263.818,197.588l-3.101-0.076l-1.573,7.66c-0.409,1.982-0.446,2.543-0.446,2.84c0,0.523,0.259,0.824,0.747,0.824
		c0.262,0,0.823-0.15,1.721-0.412l0.373-0.111l0.112,1.083c-1.944,0.786-3.963,1.307-5.045,1.307c-0.788,0-1.271-0.373-1.271-1.082
		c0-0.637,0.147-1.572,0.446-2.729c0.341-1.309,0.6-2.393,0.9-3.85l1.154-5.531l-1.979,0.037l0.265-1.197
		c2.538-0.447,3.396-2.465,4.107-4.635l1.794-0.373l-0.934,4.412l3.103-0.039L263.818,197.588z"/>
	<path d="M275.291,192.99l-1.201-0.973l4.565-5.158l3.359,0.822L275.291,192.99z M271.139,204.273c-0.26,0-0.599,0-1.08-0.036
		c-0.11,0.674-0.149,1.235-0.149,1.795c0,1.904,0.668,2.914,1.98,2.914c1.195,0,2.69-0.634,4.894-2.018l0.414,1.272
		c-2.767,1.719-4.858,2.502-6.767,2.502c-2.32,0-3.585-1.381-3.585-3.885c0-6.168,4.184-11.512,9.003-11.512
		c2.357,0,3.736,1.082,3.736,2.951C279.585,201.695,275.926,204.273,271.139,204.273z M274.993,196.799
		c-1.795,0-3.699,2.469-4.636,6.094h0.372c3.478,0,6.095-1.83,6.095-4.223C276.824,197.623,275.998,196.799,274.993,196.799z"/>
	<path d="M346.096,190.746h-1.082c0.038-0.373,0.075-0.674,0.075-0.859c0-0.748-0.262-1.346-0.711-1.795
		c-0.709-0.67-2.019-0.934-4.858-0.934c-0.784,0-1.832,0.039-2.769,0.076c-0.667,3.064-1.267,6.018-1.941,9.193
		c0.713,0,1.422,0.037,2.129,0.037c4.15,0,4.975-0.373,5.759-2.805h1.009c-0.601,2.432-1.085,4.822-1.42,7.289h-1.047
		c0.037-0.26,0.074-0.484,0.074-0.635c0-0.637-0.262-1.234-0.713-1.57c-0.634-0.486-1.38-0.598-3.627-0.598
		c-1.189,0-1.526,0.038-2.502,0.075l-0.486,2.504c-0.706,3.59-0.971,5.271-0.971,6.316c0,1.533,0.673,2.244,2.206,2.428
		l-0.148,0.787l-0.601-0.037c-0.299,0-1.938-0.037-3.362-0.037c-1.495,0-4.261,0-4.749,0.037l-0.635,0.037l0.15-0.787
		c1.124-0.109,1.796-0.448,2.321-1.156c0.596-0.748,1.005-1.793,1.491-3.887c0.528-2.131,0.712-3.252,1.495-7.139l0.597-2.951
		c0.6-2.955,0.826-4.748,0.826-5.684c0-1.645-0.602-2.314-2.206-2.502l0.15-0.822h16.596
		C346.772,187.008,346.395,188.953,346.096,190.746z"/>
	<path d="M358.834,200.127l-1.238-0.111c0.073-0.449,0.114-0.973,0.114-1.457c0-0.674-0.601-1.16-1.533-1.16
		c-0.56,0-1.121,0.338-1.611,0.898c-1.418,1.605-1.978,4.146-2.801,8.295l-0.709,3.627c-1.417,0.074-1.792,0.111-3.25,0.299
		c0.374-1.422,0.633-2.543,0.933-3.812l0.824-3.475c0.56-2.355,0.822-3.814,0.822-4.598c0-0.936-0.224-1.346-0.672-1.346
		c-0.225,0-0.565,0.074-0.938,0.186l-0.934,0.301l-0.111-1.121c1.832-0.748,3.921-1.346,4.857-1.346c0.376,0,0.6,0.148,0.676,0.523
		c0.108,0.447,0.184,0.969,0.222,1.605c1.683-1.383,3.176-2.168,4.225-2.168c0.712,0,1.604,0.377,2.463,1.01
		C359.577,197.623,359.128,198.857,358.834,200.127z"/>
	<path d="M373.574,210.703c-0.668,0-0.896-0.41-1.23-2.242c-2.763,1.57-4.787,2.279-6.767,2.279c-2.241,0-3.551-1.157-3.551-3.213
		c0-1.98,0.972-4.783,2.467-7.1c2.019-3.141,4.525-5.121,8.334-5.121c1.685,0,3.217,0.299,4.824,0.709l-0.188,0.597
		c-1.349,4.299-2.318,9.045-2.318,10.653c0,1.012,0.22,1.57,0.669,1.57c0.301,0,1.087-0.225,2.021-0.559l0.113,1.154
		C376.043,210.143,374.21,210.703,373.574,210.703z M371.857,196.875c-1.5,0-2.989,1.121-4.264,3.215
		c-1.416,2.279-2.428,5.306-2.428,7.289c0,1.156,0.561,1.791,1.494,1.791c1.381,0,3.814-1.232,4.746-2.164
		c0.524-0.525,0.823-1.273,1.197-2.691c0.599-2.281,1.158-4.412,1.493-6.879C373.273,197.062,372.493,196.875,371.857,196.875z"/>
	<path d="M391.405,197.588l-3.104-0.076l-1.57,7.66c-0.411,1.982-0.446,2.543-0.446,2.84c0,0.523,0.259,0.824,0.745,0.824
		c0.265,0,0.817-0.15,1.718-0.412l0.378-0.111l0.11,1.083c-1.941,0.786-3.966,1.307-5.051,1.307c-0.779,0-1.266-0.373-1.266-1.082
		c0-0.637,0.148-1.572,0.449-2.729c0.334-1.309,0.599-2.393,0.893-3.85l1.158-5.531l-1.979,0.037l0.262-1.197
		c2.544-0.447,3.403-2.465,4.111-4.635l1.793-0.373l-0.931,4.412l3.101-0.039L391.405,197.588z"/>
	<path d="M398.726,204.273c-0.263,0-0.598,0-1.081-0.036c-0.114,0.674-0.151,1.235-0.151,1.795c0,1.904,0.672,2.914,1.982,2.914
		c1.192,0,2.688-0.634,4.893-2.018l0.408,1.272c-2.763,1.719-4.854,2.502-6.759,2.502c-2.319,0-3.587-1.381-3.587-3.885
		c0-6.168,4.18-11.512,9.007-11.512c2.351,0,3.738,1.082,3.738,2.951C407.176,201.695,403.507,204.273,398.726,204.273z
		 M402.577,196.799c-1.793,0-3.7,2.469-4.636,6.094h0.375c3.473,0,6.09-1.83,6.09-4.223
		C404.406,197.623,403.588,196.799,402.577,196.799z"/>
	<path d="M422.159,200.127l-1.231-0.111c0.073-0.449,0.113-0.973,0.113-1.457c0-0.674-0.6-1.16-1.53-1.16
		c-0.562,0-1.124,0.338-1.609,0.898c-1.419,1.605-1.982,4.146-2.804,8.295l-0.711,3.627c-1.422,0.074-1.793,0.111-3.251,0.299
		c0.375-1.422,0.637-2.543,0.935-3.812l0.82-3.475c0.562-2.355,0.824-3.814,0.824-4.598c0-0.936-0.226-1.346-0.674-1.346
		c-0.227,0-0.56,0.074-0.935,0.186l-0.934,0.301l-0.112-1.121c1.83-0.748,3.925-1.346,4.858-1.346c0.372,0,0.602,0.148,0.675,0.523
		c0.109,0.447,0.187,0.969,0.223,1.605c1.682-1.383,3.174-2.168,4.225-2.168c0.71,0,1.606,0.377,2.465,1.01
		C422.909,197.623,422.457,198.857,422.159,200.127z"/>
	<path d="M437.066,210.703c-0.75,0-1.198-0.447-1.198-1.12c0-0.449,0.15-1.271,0.6-3.14l0.372-1.57
		c1.12-4.672,1.381-6.24,1.381-6.877c0-0.561-0.261-0.857-0.781-0.857c-0.638,0-1.684,0.373-2.807,1.045
		c-1.193,0.674-2.092,1.457-2.54,2.131c-0.339,0.561-0.596,1.531-1.045,3.514c-0.599,2.726-0.974,4.596-1.271,6.354
		c-1.458,0.111-1.831,0.148-3.287,0.336c0.747-2.803,1.309-5.122,1.865-7.699c0.562-2.543,0.786-3.738,0.786-4.41
		c0-0.859-0.264-1.27-0.822-1.27c-0.3,0-0.932,0.148-1.829,0.449l-0.079-1.049c1.8-0.709,3.741-1.232,4.638-1.232
		c0.82,0,1.079,0.486,1.079,2.242v0.297c2.842-1.604,5.756-2.539,7.778-2.539c1.231,0,1.721,0.299,1.721,1.045
		c0,0.787-0.225,2.02-1.015,5.047c-0.447,1.721-0.857,3.551-1.008,4.371c-0.223,1.086-0.331,1.758-0.331,2.168
		c0,0.561,0.296,0.861,0.817,0.861c0.337,0,1.047-0.15,1.947-0.486l0.111,1.083C440.164,210.105,437.922,210.703,437.066,210.703z"
		/>
	<path d="M452.794,191.57c-1.159,0-1.905-0.711-1.905-1.795c0-1.348,0.972-2.281,2.316-2.281c1.122,0,1.829,0.674,1.829,1.76
		C455.035,190.598,454.101,191.57,452.794,191.57z M448.72,210.666c-0.748,0-1.231-0.41-1.231-1.083c0-0.335,0.108-0.935,0.3-1.757
		c0.484-1.98,1.156-4.672,1.527-6.092c0.526-1.943,0.75-3.291,0.75-3.812c0-0.486-0.224-0.707-0.635-0.707
		c-0.336,0-0.674,0.109-1.459,0.334l-0.262,0.074l-0.113-1.045c2.061-0.785,4.075-1.271,5.084-1.271
		c0.562,0,0.786,0.185,0.786,0.635c0,0.447-0.188,1.646-0.86,4.26l-0.559,2.203c-0.935,3.629-1.159,4.898-1.159,5.496
		c0,0.561,0.296,0.898,0.861,0.898c0.331,0,1.01-0.15,2.052-0.521l0.076,1.044C451.898,210.105,449.768,210.666,448.72,210.666z"/>
	<path d="M467.511,197.588l-3.104-0.076l-1.569,7.66c-0.408,1.982-0.448,2.543-0.448,2.84c0,0.523,0.258,0.824,0.746,0.824
		c0.262,0,0.824-0.15,1.721-0.412l0.369-0.111l0.113,1.083c-1.941,0.786-3.957,1.307-5.045,1.307c-0.78,0-1.264-0.373-1.264-1.082
		c0-0.637,0.146-1.572,0.443-2.729c0.335-1.309,0.599-2.393,0.897-3.85l1.159-5.531l-1.982,0.037l0.261-1.197
		c2.54-0.447,3.401-2.465,4.114-4.635l1.791-0.373l-0.934,4.412l3.102-0.039L467.511,197.588z"/>
	<path d="M478.985,192.99l-1.196-0.973l4.559-5.158l3.359,0.822L478.985,192.99z M474.835,204.273c-0.263,0-0.601,0-1.085-0.036
		c-0.114,0.674-0.151,1.235-0.151,1.795c0,1.904,0.674,2.914,1.985,2.914c1.192,0,2.691-0.634,4.895-2.018l0.411,1.272
		c-2.765,1.719-4.859,2.502-6.768,2.502c-2.313,0-3.586-1.381-3.586-3.885c0-6.168,4.186-11.512,9.004-11.512
		c2.356,0,3.742,1.082,3.742,2.951C483.283,201.695,479.618,204.273,474.835,204.273z M478.681,196.799
		c-1.792,0-3.695,2.469-4.633,6.094h0.374c3.479,0,6.096-1.83,6.096-4.223C480.518,197.623,479.689,196.799,478.681,196.799z"/>
	<path d="M303.748,203.744c2.503,0,4.537-2.031,4.537-4.536c0-2.503-2.034-4.535-4.537-4.535c-2.504,0-4.533,2.031-4.533,4.535
		C299.214,201.713,301.244,203.744,303.748,203.744z"/>
	<circle cx="148.018" cy="199.209" r="4.535"/>
	<line style="fill:none;stroke:#000000;stroke-width:0.7163;" x1="17.409" y1="227.182" x2="483.539" y2="227.182"/>
	<g>
		<defs>
			<rect id="XMLID_4_" x="18.068" y="7.127" width="466.583" height="156.584"/>
		</defs>
		<clipPath id="XMLID_6_">
			<use xlink:href="#XMLID_4_" />
		</clipPath>
		<rect x="13.666" style="clip-path:url(#XMLID_6_);fill:#FFFFFF;" width="476.287" height="167.848"/>
		<path style="clip-path:url(#XMLID_6_);fill:#004494;" d="M157.281,104.414c-4.229,1.242-8.552,1.428-12.471,3.562
			c9.264-0.354,18.528,1.07,27.438,3.922c3.208,1.07,6.061,2.494,8.911,4.277c1.423,1.066,2.139,2.137,3.564,2.852
			c1.782,1.066,4.275,1.066,6.059,0.355c0.354,0,1.424,0,1.778,0c5.347-1.426,11.051-2.854,14.615-6.771
			c0,0.357,0.354,0.357,0.713,0.357c-1.068,2.85-1.068,6.059-3.207,8.551c0,0.357-0.357,1.068,0.355,1.426c0.358,0,0.358,0,0.713,0
			c-0.355,0-0.713,0-0.713,0.357c0,0.713,1.068,0,1.424,0.713c-1.779,0.354-3.561,0.713-4.631,2.137c0,0.357,0.713,0.357,1.07,0.357
			c-0.714,0.713-1.781,0.357-2.138,1.068c0,0,0.357,0.355,0.711,0.355c-0.354,0-0.711,0-0.711,0.357s0,0.713,0,1.068
			c-1.068,0-1.426,0.715-2.139,1.07c1.423,1.068,2.496,0,3.919,0c-3.919,1.426-7.129,3.562-11.047,4.631c-0.713,0,0,1.07-0.713,1.07
			c1.068,0.713,1.778-0.354,2.848-0.354c-4.986,2.848-9.975,5.342-15.32,8.551c0,0-0.715,0.711-0.715,1.428
			c-0.357,0-1.068,0-1.424,0c-0.714,0.354-0.357,1.422-1.07,2.137c1.783,1.068,3.922-1.428,4.988,0c0.357,0-0.711,0.355-1.424,0.355
			c-0.355,0-0.355,0.713-0.711,0.713c-0.359,0-0.717,0-1.07,0c-0.713,0.713-1.427,1.068-1.427,2.139c-0.709,0-1.424,0-1.782,0.713
			c7.842-1.07,16.037-0.357,23.521-4.279c5.703-2.85,11.049-6.77,15.68-11.756c0,0,0.357,0.354,0.357,0.709
			c-1.07,3.564-3.209,6.059-6.059,8.197c-2.139,1.072-3.564,2.85-5.346,3.564c-1.068,0.713-2.136,1.426-3.207,2.137
			c-13.186,4.633-28.867,2.496-40.27,11.406c0-0.359-0.355-0.359-0.712-0.359c-0.713,0.715-1.782,1.07-2.137,1.783
			c0,0.715,1.068,0.357,1.424,0.357c2.137-1.426,4.275-2.496,6.771-3.209c-2.85,1.428-5.701,3.567-8.553,4.278
			c-6.059,1.068-11.762,0.713-17.82,0c3.565-2.139,7.129-4.631,11.049-6.771c-1.068-0.711-2.138-0.711-3.209-0.711
			c-1.781,0.354-3.917-0.715-5.701,0c-5.344,2.492-12.475,1.781-15.324,7.482c-35.635,0.713-71.627,0-107.266,0
			c0.715-38.844,0-77.332,1.07-116.176c0.354-13.898-0.355-27.797-0.355-41.693c9.621-1.784,19.244-0.715,28.865-0.357
			c61.65,0,122.945-0.357,184.598,0c-4.278,2.139-9.266,3.918-12.475,7.84c-2.85,3.564-5.701,7.127-6.771,11.404
			c-4.631,2.852-7.482,7.125-9.977,11.402c-3.207,6.059-7.839,11.404-7.126,18.176c0.71,5.701,2.138,11.047,3.205,17.105
			c0.359,2.139,0.715,3.92,1.428,6.057c0.71,2.139,0,4.635,1.066,6.416c0.717,1.07,0.359,2.494,1.783,3.205c0,0.359,0,1.072,0,1.428
			c0.357,0.355,0.357,0.713,1.068,0.713c0,0.357,0,1.068,0,1.426c2.852,3.564,6.418,6.77,8.197,10.693
			c0.713,2.135-3.562,1.066-5.346,0.354c-3.562-1.781-5.703-4.633-8.551-7.127c0,0-0.357,0.355-0.357,0.713
			c1.426,2.496,6.77,5.699,3.922,7.484c-1.426,0.711-3.211-1.07-4.637,0.355c-0.355,0.711,0,1.426,0,2.137
			c-2.135-1.426-4.275-0.711-6.414-1.426c-1.424-0.355-1.78-3.207-3.562-3.207c-4.631-1.068-8.911-2.139-13.541-2.492
			c-6.416-0.715-12.475-1.783-18.889-0.715c-5.701,0.359-9.977,4.635-13.543,8.91c0,0.357,0,1.068,0,1.068
			c2.499,0.357,3.566-1.783,5.704-2.492c3.564-0.715,6.77-2.139,10.335-2.852c5.344-1.072,10.334-2.496,15.324-2.139
			c1.069,0,2.492-0.357,3.561,0C169.043,100.494,163.338,102.633,157.281,104.414z"/>
		<path style="clip-path:url(#XMLID_6_);fill:#FFFFFF;" d="M137.324,121.52c-1.092,0.273-2.136,1.068-1.781,1.783
			c1.07,1.426,3.208-0.357,4.988-0.357c-2.137,0.713-4.63,0.357-6.412,2.141c1.424,1.066,2.85,0.354,4.275,0.354
			c0,0.713,0.711,0.713,1.069,1.07c-1.779,0.713-3.208,2.139-3.562,3.207c-0.713,1.781-2.496,2.494-3.565,3.92
			c0,0.355,0,0.713,0,1.068c-3.56,3.209-7.482,5.346-10.334,9.266c0.355,0,0.355,0.357,0.355,0.713
			c-0.71,1.072-2.136,1.426-2.494,2.494c0,0.355,0,0.715,0.357,0.715c4.275-1.428,7.484-4.635,11.404-6.059
			c2.85-0.715,4.988-2.496,7.48-3.209c1.783-0.357,3.924-1.068,5.705-1.426c0,0.357,0,0.715,0.354,0.715c1.071,0,1.784,0,2.854,0
			c-0.355,0.711-1.783,0.354-1.426,0.711c1.07,1.07,3.207,0.713,4.63,0c1.071-0.711,2.139-0.711,3.565-0.711
			c0.357,0,0.357-0.715,0.357-1.07c1.069,0.355,1.782,0.355,2.852,0.355c8.551-1.781,16.75-3.562,24.585-7.482
			c-9.264-7.129-21.025-9.623-32.072-12.83c1.072,0,2.141,1.07,3.211,0c-1.783-1.426-3.922-0.711-5.703-1.779
			c0.355,0,1.068,0.354,1.424-0.359c-2.85-1.426-5.702-1.426-8.553-2.137c1.783-0.355,2.851-1.781,2.851-3.564
			c0-0.355-0.71-0.355-1.068-0.355c-4.278,2.139-7.129,6.057-8.911,10.691c2.494,1.424,5.344,0.357,7.842,0.711
			C140.531,121.164,138.752,121.164,137.324,121.52z"/>
		<path style="clip-path:url(#XMLID_6_);fill:#FFFFFF;" d="M122.717,107.623c-3.641,3.852-7.485,7.484-12.117,9.977
			c-3.209,6.416-6.773,12.117-11.407,18.178c0,0.354,0.358,0.709,0.358,0.709c8.552-9.619,16.391-17.818,27.438-24.588
			c0.717-0.357-1.065,1.07,0.361,0.713c4.631-1.07,6.055-5.701,8.193-9.266c2.851-4.631,7.839-6.414,11.404-10.334
			c0,0.355,0,0.711-0.355,1.068c0.355,0.357,0.713,0.357,1.07,0.357c1.423-1.07,3.203-0.715,4.275-2.141
			c-2.852-1.068-6.415-1.424-9.266-0.355C135.188,95.506,128.776,101.207,122.717,107.623z"/>
		<path style="clip-path:url(#XMLID_6_);fill:#FFFFFF;" d="M128.059,114.393c0.318-0.637,0.717-0.711,1.072-1.424
			c0-0.357,0-0.713-0.355-0.713c-1.426,0.355-2.496,1.779-2.852,3.205c0,0.357,0.356,0.357,0.709,0.357
			C127.35,115.461,127.706,115.107,128.059,114.393z"/>
		<path style="clip-path:url(#XMLID_6_);fill:#FFFFFF;" d="M156.57,141.475c-1.426,0.717-3.919,0.717-4.277,2.496
			c-0.355,0.713,1.068,0.357,1.781,0.357c2.496-1.07,5.348,0,7.482-2.137c-0.709-0.717-1.779-0.357-2.494-1.428
			C158.352,140.408,157.281,141.119,156.57,141.475z"/>
		<path style="clip-path:url(#XMLID_6_);fill:#004494;" d="M195.412,160.721c2.202-0.49,4.28-1.781,6.416-2.494
			c0,0.355,0,0.355,0,0.713c5.346-2.137,9.268-6.773,14.61-8.555c0.359,0,1.068,0.715,1.783,0.357
			c3.207-2.85,6.773-6.059,11.404-5.348c0,0.361,0,0.715,0.355,0.715c0.355,0,0.712,0,0.712-0.354
			c-1.424,1.066-2.85,2.137-4.277,3.205c-0.353,0.355,0,0.713,0.357,0.713c1.782-0.713,2.852-2.141,4.633-2.852
			c-0.355,0.355-0.355,1.07-0.713,1.426c-6.771,4.988-11.759,10.691-17.105,16.748c-3.565,0-7.485,0-11.047,0
			c0-0.355,0-0.713-0.357-0.713c-12.473,1.07-24.59,0.713-37.062,0.713c7.126-1.066,14.255-3.205,21.383-3.92
			C189.356,161.076,192.206,161.432,195.412,160.721z"/>
		<path style="clip-path:url(#XMLID_6_);fill:#E2001A;" d="M335.823,142.545c0.858-2.574,1.778-5.346,0.354-7.84
			c-2.139-3.207,2.139-4.275,3.565-6.414c1.067-1.781-0.713-2.852-1.07-4.633c-0.356-0.713-1.779-0.355-2.495-1.426
			c2.495-1.068,6.415-3.205,4.633-6.414c-1.067-1.783-2.851-4.633-0.711-6.414c2.493-1.428,6.412-1.07,7.481-3.562
			c1.784-4.279-2.138-7.842-4.278-11.404c-1.066-2.141-2.492-3.564-3.916-5.701c-1.427-2.496-3.209-4.635-3.919-7.486
			c-1.072-2.852,0.355-5.342,0.355-8.197c0.354-5.342-1.072-10.69-2.492-16.035c-1.073-2.496-1.43-5.346-2.496-7.84
			c-0.358-1.426-0.716-2.852-1.787-4.277c-0.353-0.711-0.353-1.781,0-2.494c1.429-1.066,2.854-2.137,4.283-3.562
			c1.064-1.783,0.351-4.277-1.43-5.346c-2.495-1.07-2.136,2.494-3.919,3.207c-0.356,0-0.712,0-1.068,0
			c-0.358-1.066,0.356-1.424,1.068-2.139c0-0.355,0-1.068-0.356-1.068c-1.428,0-2.849-0.357-3.207-1.07
			c-3.564-4.986-8.554-7.48-13.896-9.619c1.423,0.355,2.851,0.711,4.276,0.711c2.492,0.357,5.345,0.357,7.481-0.711
			c1.783-0.715,2.139-3.564,2.851-5.348c0.713-1.424-0.354-3.562-1.067-4.631c-1.783-2.854-4.633-4.635-7.485-6.059
			c56.308,0,112.615,0,168.916,0c0.357,52.74-0.357,105.484-0.713,158.225c-66.641,1.07-133.277,0-199.92,0
			c2.14-7.127,6.062-13.896,12.474-18.531c1.423-0.709,3.202-1.07,4.989-1.426c6.059,0,12.114,1.783,18.17,2.494
			c0.716,0,1.433,0.359,2.143,0.715c2.141,0.355,4.634,0.355,6.77-0.355C331.901,147.178,334.75,145.756,335.823,142.545z"/>
		<path style="clip-path:url(#XMLID_6_);fill:#808080;" d="M322.28,72.342c-2.106-0.525-3.919,0-6.059,0
			c-2.849,0.711-5.345,1.068-7.839,2.139c2.14-1.428,4.272-2.852,6.77-3.564c1.783-0.355,3.565-1.426,5.342-1.426
			c2.143-0.355,4.283-1.07,6.062-0.355c1.783,0.711,4.634,0.711,4.992,1.781c0.71,2.137-1.071,4.275-3.209,5.703
			c-0.356,0.711,1.067,1.068,1.067,1.779c-0.358,0.714-1.424,1.07-2.136,1.07c-0.715,0.355-1.427,1.426-2.14,2.141
			c0.713,0,0,1.068,0.713,1.068c-1.425,1.781,0.712,5.342-1.425,6.059c-2.492,0.711-5.345,0.711-8.197,0
			c1.424-0.357,3.209,0.355,4.272-1.07c0-0.357,0-1.07,0-1.426s-0.351-0.355-0.709-0.355c-0.354,0.355-0.711,0.355-0.711,0.355
			c0-0.715-0.713-1.426-1.072-1.426c-2.137,0.355-3.917-0.713-5.347-2.137c1.071-0.357,2.144-0.715,3.21-0.357
			c1.07,0,0.713-1.783,1.78-2.496c0.356,0,0.716,0,1.072,0c2.137-2.85,6.413-3.562,7.126-6.414
			C325.843,72.697,323.706,72.697,322.28,72.342z"/>
	</g>
</g>
<g>
	<rect x="17.305" y="365.299" style="fill:#004494;" width="467.751" height="259.861"/>
	<path style="fill:#FFFFFF;" d="M25.51,570.15c-0.366-3.85-2.781-6.054-6.58-6.05c-4.262,0.005-6.823,3.652-6.812,10.788
		c0.008,5.187,1.143,10.062,7.302,10.054c3.903-0.005,5.746-2.727,6.203-6.271l11.654-0.013
		c-1.064,9.549-7.884,15.307-17.638,15.317C7.42,593.992,0.018,586.506,0,574.492c-0.016-11.96,8.085-19.413,18.404-19.427
		c11.293-0.012,17.615,5.576,18.604,15.072L25.51,570.15z"/>
	<path style="fill:#FFFFFF;" d="M56.008,572.475c2.771-0.158,4.521,2.817,4.525,6.771c0.007,5.083-1.735,7.292-4.61,7.296
		c-2.721,0.004-4.625-2.201-4.63-7.285C51.289,576.229,52.361,572.479,56.008,572.475z M40.615,579.833
		c0.014,9.19,6.694,13.904,15.319,13.896c8.625-0.013,15.291-4.639,15.277-14.496c-0.012-8.367-5.871-13.958-15.369-13.945
		C46.756,565.299,40.604,570.491,40.615,579.833z"/>
	<path style="fill:#FFFFFF;" d="M75.352,566.036l9.805-0.012l0.006,4.004c1.332-2.057,4.666-4.779,8.515-4.786
		c4.827-0.005,7.499,2.046,8.786,4.919c2.306-3.236,5.332-4.936,9.285-4.939c7.855-0.01,10.325,4.402,10.336,11.741l0.021,15.917
		l-10.678,0.012l-0.019-13.708c-0.006-3.95-0.778-5.542-3.602-5.538c-3.13,0.004-3.744,2.725-3.738,5.959l0.018,13.296
		l-10.677,0.013l-0.02-13.708c-0.006-3.95-0.778-5.542-3.602-5.538c-3.131,0.004-3.743,2.725-3.739,5.958l0.018,13.297
		l-10.678,0.015L75.352,566.036z"/>
	<path style="fill:#FFFFFF;" d="M126.688,565.973l9.806-0.012l0.006,4.004c1.332-2.055,4.664-4.779,8.514-4.783
		c4.826-0.008,7.498,2.043,8.785,4.916c2.307-3.236,5.334-4.934,9.287-4.938c7.854-0.011,10.324,4.4,10.334,11.742l0.023,15.914
		l-10.678,0.013l-0.019-13.706c-0.008-3.953-0.778-5.544-3.602-5.54c-3.133,0.003-3.744,2.725-3.74,5.959l0.019,13.295l-10.68,0.014
		l-0.018-13.706c-0.005-3.953-0.779-5.543-3.601-5.54c-3.131,0.003-3.745,2.725-3.74,5.96l0.02,13.294l-10.678,0.015
		L126.688,565.973z"/>
	<path style="fill:#FFFFFF;" d="M207.479,592.775l-9.909,0.014l-0.006-3.952c-2.664,3.699-5.279,4.729-9.695,4.734
		c-5.851,0.005-9.656-3.583-9.666-11.283l-0.023-16.375l10.677-0.014l0.022,14.526c0.003,3.698,1.289,4.878,3.855,4.874
		c3.082-0.004,4.052-2.315,4.046-6.474l-0.017-12.938l10.678-0.014L207.479,592.775z"/>
	<path style="fill:#FFFFFF;" d="M212.42,565.87l9.754-0.011l0.006,4.208c2.408-3.237,5.025-4.984,9.08-4.988
		c7.086-0.01,10.428,4.145,10.438,11.537l0.023,16.121l-10.678,0.012l-0.021-14.221c-0.002-2.669-0.725-5.029-3.754-5.025
		c-3.286,0.002-4.154,2.109-4.15,5.548l0.019,13.708l-10.677,0.012L212.42,565.87z"/>
	<path style="fill:#FFFFFF;" d="M247.418,592.729l-0.038-26.9l10.679-0.014l0.037,26.9L247.418,592.729z M247.364,554.792
		l10.681-0.014l0.011,7.597l-10.679,0.014L247.364,554.792z"/>
	<path style="fill:#FFFFFF;" d="M282.202,576.053c-0.051-1.18-0.466-2.104-1.135-2.77c-0.669-0.719-1.593-1.076-2.773-1.075
		c-4.003,0.004-4.664,4.162-4.661,7.346c0.007,4.055,1.549,6.725,4.682,6.72c2.771-0.003,3.846-1.903,4.153-4.008l10.78-0.014
		c-0.912,8.164-7.479,11.198-14.921,11.209c-8.679,0.01-15.359-4.857-15.374-13.945c-0.01-9.188,6.449-14.484,15.332-14.495
		c7.187-0.009,13.967,3.062,14.749,11.018L282.202,576.053z"/>
	<path style="fill:#FFFFFF;" d="M311.273,587.366c-2.104,0.001-3.391-0.922-3.393-2.257c-0.004-3.489,4.617-2.676,8.108-4.372
		C316.25,584.432,315.022,587.359,311.273,587.366z M328.119,592.631v-0.515c-1.387-1.126-1.438-1.896-1.442-3.438l-0.018-12.578
		c-0.008-6.415-0.783-11.139-13.519-11.122c-10.626,0.013-14.676,3.354-14.668,9.055l10.268-0.014
		c0.254-2.312,2.254-2.621,3.742-2.624c1.132-0.001,3.492,0.254,3.494,2.204c0.006,5.031-19.148-0.491-19.13,11.729
		c0.005,5.596,4.526,8.104,9.61,8.1c4.003-0.004,7.084-0.83,10.107-3.657l0.521,2.874L328.119,592.631z"/>
	<path style="fill:#FFFFFF;" d="M350.041,592.605c-14.015,0.787-15.71-0.188-15.723-9.478l-0.016-11.243l-3.801,0.004l-0.008-6.159
		l3.954-0.006l-0.013-8.367l10.524-0.012l0.013,8.367l5.134-0.007l0.008,6.161l-5.135,0.005l0.015,9.754
		c0.003,2.466,0.366,3.337,3.342,3.334l1.694-0.004L350.041,592.605z"/>
	<path style="fill:#FFFFFF;" d="M355.789,592.598l-0.037-26.9l10.676-0.015l0.04,26.903L355.789,592.598z M355.736,554.661
		l10.678-0.012l0.01,7.596l-10.677,0.014L355.736,554.661z"/>
	<path style="fill:#FFFFFF;" d="M386.869,572.079c2.774-0.158,4.521,2.817,4.529,6.771c0.007,5.082-1.736,7.291-4.611,7.295
		c-2.723,0.001-4.623-2.203-4.631-7.286C382.152,575.83,383.224,572.083,386.869,572.079z M371.479,579.437
		c0.014,9.19,6.694,13.904,15.318,13.896c8.625-0.012,15.292-4.641,15.279-14.496c-0.013-8.367-5.874-13.957-15.371-13.945
		C377.619,564.903,371.467,570.094,371.479,579.437z"/>
	<path style="fill:#FFFFFF;" d="M406.368,565.637l9.755-0.013l0.006,4.212c2.408-3.238,5.022-4.986,9.078-4.992
		c7.087-0.008,10.43,4.146,10.438,11.539l0.023,16.119l-10.679,0.014l-0.019-14.221c-0.004-2.671-0.728-5.029-3.757-5.028
		c-3.283,0.007-4.154,2.112-4.15,5.552l0.021,13.706l-10.679,0.013L406.368,565.637z"/>
	<path style="fill:#FFFFFF;" d="M321.628,506.057c-0.355-3.853-2.768-6.062-6.564-6.065c-4.262-0.001-6.832,3.642-6.84,10.775
		c-0.006,5.187,1.119,10.065,7.281,10.069c3.9,0.004,5.752-2.716,6.216-6.258l11.654,0.009c-1.087,9.547-7.923,15.292-17.677,15.283
		c-12.218-0.009-19.602-7.512-19.589-19.522c0.012-11.961,8.13-19.398,18.449-19.391c11.295,0.009,17.601,5.609,18.567,15.107
		L321.628,506.057z"/>
	<path style="fill:#FFFFFF;" d="M366.628,528.937l-9.91-0.008l0.006-3.952c-2.673,3.693-5.294,4.719-9.706,4.715
		c-5.856-0.006-9.649-3.602-9.642-11.301l0.019-16.378l10.675,0.008l-0.014,14.528c-0.004,3.696,1.279,4.879,3.846,4.88
		c3.083,0.003,4.058-2.306,4.062-6.464l0.013-12.938l10.68,0.008L366.628,528.937z"/>
	<path style="fill:#FFFFFF;" d="M372.327,528.942l0.038-36.963l10.679,0.009l-0.04,36.963L372.327,528.942z"/>
	<path style="fill:#FFFFFF;" d="M406.464,528.969c-14.013,0.758-15.709-0.22-15.7-9.511l0.013-11.242l-3.798-0.004l0.003-6.159
		l3.956,0.001l0.01-8.367l10.521,0.011l-0.008,8.367l5.136,0.004l-0.008,6.16l-5.133-0.004l-0.013,9.754
		c0,2.465,0.358,3.338,3.334,3.34h1.695L406.464,528.969z"/>
	<path style="fill:#FFFFFF;" d="M440.757,528.996l-9.908-0.008l0.005-3.952c-2.673,3.693-5.291,4.719-9.707,4.714
		c-5.853-0.004-9.649-3.601-9.64-11.3l0.015-16.377l10.677,0.01l-0.011,14.526c-0.008,3.695,1.275,4.878,3.843,4.879
		c3.08,0.004,4.058-2.305,4.062-6.464l0.013-12.937l10.677,0.009L440.757,528.996z"/>
	<path style="fill:#FFFFFF;" d="M445.968,502.1l9.704,0.008l-0.007,5.441h0.104c1.49-4.208,4.11-6.208,8.271-6.205
		c0.461,0,0.924,0.104,1.386,0.154l-0.011,10.68c-0.721-0.104-1.489-0.309-2.206-0.312c-4.364-0.004-6.574,2.05-6.581,7.85
		l-0.01,9.292L445.941,529L445.968,502.1z"/>
	<path style="fill:#FFFFFF;" d="M478.351,512.546c0.003-2.875,1.801-4.669,4.984-4.667c2.516,0.004,4.724,2.211,4.717,4.675
		L478.351,512.546z M498.726,518.006c0.164-9.754-5.836-16.64-15.795-16.647c-8.622-0.005-15.251,5.636-15.259,14.466
		c-0.013,9.034,6.658,13.969,15.28,13.976c6.265,0.004,13.044-2.196,14.896-8.871l-10.214-0.005
		c-0.771,1.589-2.315,2.357-4.009,2.357c-2.821-0.003-5.284-2.11-5.279-5.294L498.726,518.006z"/>
	<path style="fill:#FFFFFF;stroke:#FFFFFF;stroke-width:0.0612;" d="M75.002,427.129v-22.881h3.305l7.5,20.18h0.065l7.373-20.18
		h3.274v22.881h-2.162v-20.402h-0.062l-7.502,20.402h-2.033l-7.531-20.402h-0.064v20.402H75.002z"/>
	<path style="fill:#FFFFFF;stroke:#FFFFFF;stroke-width:0.0612;" d="M103.57,407.077v-2.828h-2.095v2.828H103.57z M103.477,427.129
		v-16.461h-1.906v16.461H103.477z"/>
	<path style="fill:#FFFFFF;stroke:#FFFFFF;stroke-width:0.0612;" d="M110.247,427.129h-1.908v-16.461h1.908v2.289
		c1.525-1.621,3.018-2.734,5.306-2.734c2.002,0,3.846,0.637,5.021,2.352c0.793,1.175,0.827,2.416,0.827,3.781v10.773h-1.907v-10.74
		c0-2.957-1.209-4.449-4.259-4.449c-2.352,0-3.973,1.525-4.576,3.209c-0.381,1.049-0.412,1.971-0.412,3.115V427.129z"/>
	<path style="fill:#FFFFFF;stroke:#FFFFFF;stroke-width:0.0612;" d="M126.295,427.129v-16.461h1.907v16.461H126.295z
		 M126.199,407.077v-2.828h2.098v2.828H126.199z"/>
	<path style="fill:#FFFFFF;stroke:#FFFFFF;stroke-width:0.0612;" d="M134.174,421.981c0.606,2.827,2.066,3.879,4.928,3.879
		c2.764,0,4.067-1.463,4.067-3.052c0-4.767-10.551-1.397-10.551-7.883c0-2.731,2.13-4.702,5.785-4.702
		c3.559,0,5.879,1.46,6.355,5.181h-1.939c-0.347-2.542-2.064-3.464-4.449-3.464c-2.414,0-3.717,1.145-3.717,2.828
		c0,4.48,10.551,1.684,10.551,8.007c0,3.147-2.828,4.8-6.705,4.8c-3.879,0-6.104-2.479-6.262-5.594H134.174z"/>
	<path style="fill:#FFFFFF;stroke:#FFFFFF;stroke-width:0.0612;" d="M154.736,427.194c-0.445,0.096-1.271,0.381-2.193,0.381
		c-1.875,0-2.924-0.826-2.924-3.274v-12.042h-2.32v-1.59h2.32v-4.577h1.908v4.577h3.083v1.59h-3.083v11.281
		c0,1.621,0.062,2.32,1.65,2.32c0.51,0,1.051-0.096,1.559-0.223V427.194z"/>
	<path style="fill:#FFFFFF;stroke:#FFFFFF;stroke-width:0.0612;" d="M158.963,417.756c0.38-3.115,2.16-5.816,5.529-5.816
		c3.431,0,5.213,2.605,5.213,5.816H158.963z M164.873,408.889h1.621l-3.527-4.418h-2.479L164.873,408.889z M171.739,419.344
		c0.031-5.912-2.733-9.121-7.246-9.121c-4.704,0-7.562,3.941-7.562,8.739c0,4.862,2.287,8.612,7.562,8.612
		c4.195,0,6.166-2.383,7.119-5.498h-2.129c-0.572,2.416-2.511,3.783-4.99,3.783c-3.654,0-5.561-2.957-5.529-6.516H171.739z"/>
	<path style="fill:#FFFFFF;stroke:#FFFFFF;stroke-width:0.0612;" d="M177.459,427.129h-1.907v-16.461h1.907v3.081h0.064
		c1.047-2.636,2.606-3.526,5.371-3.526v2.066c-4.291-0.096-5.435,3.081-5.435,6.769V427.129z"/>
	<path style="fill:#FFFFFF;stroke:#FFFFFF;stroke-width:0.0612;" d="M187.215,417.756c0.381-3.115,2.162-5.816,5.529-5.816
		c3.434,0,5.213,2.605,5.213,5.816H187.215z M199.99,419.344c0.032-5.912-2.732-9.121-7.246-9.121c-4.703,0-7.562,3.941-7.562,8.739
		c0,4.862,2.29,8.612,7.562,8.612c4.195,0,6.166-2.383,7.12-5.498h-2.129c-0.573,2.416-2.512,3.783-4.991,3.783
		c-3.654,0-5.56-2.957-5.529-6.516H199.99z"/>
</g>
</svg>
