<?xml version="1.0" encoding="utf-8"?>
<!-- Generator: Adobe Illustrator 16.0.0, SVG Export Plug-In . SVG Version: 6.00 Build 0)  -->
<!DOCTYPE svg PUBLIC "-//W3C//DTD SVG 1.1//EN" "http://www.w3.org/Graphics/SVG/1.1/DTD/svg11.dtd">
<svg version="1.1" id="Layer_1" xmlns="http://www.w3.org/2000/svg" xmlns:xlink="http://www.w3.org/1999/xlink" x="0px" y="0px"
	 width="283.465px" height="178.98px" viewBox="0 0 283.465 178.98" enable-background="new 0 0 283.465 178.98"
	 xml:space="preserve">
<g>
	<g>
		<path fill="#312783" d="M4.297,106.419v71.071h22.337c11.27,0,18.682-2.438,24.469-6.701c8.731-6.498,14.112-17.057,14.112-28.835
			c0-11.776-5.381-22.336-14.112-28.834c-5.787-4.263-13.199-6.701-24.469-6.701H4.297z M51.509,141.954
			c0,5.89-1.929,11.371-5.179,15.433c-3.959,4.976-9.746,7.92-18.174,7.92H18.004v-46.703h10.152c8.428,0,14.215,2.944,18.174,7.919
			C49.58,130.583,51.509,136.066,51.509,141.954z"/>
		<path fill="#312783" d="M132.847,109.014c0-1.795-0.998-2.595-3.594-2.595H90.926c-1.397,0-2.195,0.5-2.195,2.795v66.273
			c0,2.496,1.098,3.493,2.694,3.493c1.598,0,2.695-1.098,2.695-3.593v-34.035h21.559c2.396,0,3.394-0.898,3.394-2.694
			c0-1.598-0.998-2.695-3.394-2.695H94.12v-24.154h35.232C131.849,111.809,132.847,110.711,132.847,109.014z"/>
		<path fill="#312783" d="M182.578,153.828v-46.41c0-2.396-1.098-3.395-2.694-3.395c-1.697,0-2.695,0.998-2.695,3.395v46.311
			c0,13.874-2.873,19.862-16.546,19.862c-14.517,0-16.746-4.492-16.746-19.663v-0.698c0-2.596-0.999-3.594-2.696-3.594
			c-1.598,0-2.694,0.998-2.694,3.594v0.698c0,17.566,3.983,25.053,21.851,25.053C177.822,178.98,182.578,171.396,182.578,153.828z"
			/>
		<polygon fill="#312783" points="221.935,177.489 232.438,177.489 245.599,135.09 258.858,177.489 269.363,177.489 
			283.465,106.419 269.657,106.419 262.097,151.36 250.758,116.808 240.539,116.808 229.201,151.36 221.64,106.419 207.832,106.419 
					"/>
	</g>
	<g>
		<path fill="#312783" d="M58.789,37.428c0,17.069-9.083,32.04-26.75,32.04c-17.467,0-26.648-15.171-26.648-32.04
			c0-17.167,8.883-32.039,26.648-32.039C49.706,5.389,58.789,20.361,58.789,37.428z M64.178,37.428C64.178,17.466,52.8,0,32.039,0
			C11.279,0,0,17.367,0,37.428c0,19.664,11.678,37.43,32.039,37.43C52.8,74.858,64.178,57.492,64.178,37.428z"/>
		<polygon fill="#312783" points="133.473,13.877 133.473,1.514 90.199,1.514 90.199,73.637 104.108,73.637 104.108,41.754 
			126.261,41.754 126.261,29.39 104.108,29.39 104.108,13.877 		"/>
		<path fill="#312783" d="M194.118,45.615h-30.243l15.171-39.526L194.118,45.615z M209.788,72.064c0-1.098-0.898-2.594-1.397-3.793
			L183.438,3.693C182.54,1.098,181.542,0,179.046,0c-2.595,0-3.394,1.198-4.391,3.693l-24.854,64.578
			c-0.499,1.199-1.297,2.695-1.297,3.793c0,0.799,0.798,2.396,2.794,2.396c1.896,0,2.495-2.396,3.094-4.193l7.886-20.16h33.636
			l7.785,20.16c0.798,1.896,1.397,4.193,3.193,4.193C208.89,74.46,209.788,72.863,209.788,72.064z"/>
		<path fill="#312783" d="M271.843,1.514h-13.909v51.001c0,3.812-0.618,5.564-1.648,6.904c-1.442,1.854-4.568,2.885-7.145,2.885
			c-4.739,0-8.341-1.492-11.09-6.191l-11.173,5.672c3.77,8.754,12.692,12.883,21.644,12.883c15.088,0,23.321-8.41,23.321-22.266
			V1.514z"/>
	</g>
</g>
</svg>
